<?xml version="1.0" standalone="no"?>
<!DOCTYPE svg PUBLIC "-//W3C//DTD SVG 20010904//EN"
 "http://www.w3.org/TR/2001/REC-SVG-20010904/DTD/svg10.dtd">
<svg version="1.0" xmlns="http://www.w3.org/2000/svg"
 width="680.000000pt" height="680.000000pt" viewBox="0 0 680.000000 680.000000"
 preserveAspectRatio="xMidYMid meet">
<metadata>
Created by potrace 1.11, written by Peter Selinger 2001-2013
</metadata>
<g transform="translate(0.000000,680.000000) scale(0.100000,-0.100000)"
fill="#000000" stroke="none">
<path d="M3293 6782 c-121 -43 -211 -145 -229 -261 -6 -38 -11 -44 -58 -66
-44 -22 -344 -263 -717 -576 -63 -53 -143 -117 -179 -144 -36 -26 -58 -46 -50
-42 8 3 44 18 80 33 134 55 372 134 605 198 132 37 267 76 300 88 33 11 80 22
104 25 42 5 45 3 105 -55 33 -34 80 -71 102 -84 l42 -23 -112 -90 c-61 -50
-111 -95 -111 -101 0 -6 -15 -24 -33 -39 -18 -15 -46 -47 -63 -71 -16 -24 -34
-44 -40 -44 -14 0 -343 -131 -619 -245 -129 -54 -273 -111 -320 -126 l-85 -28
136 0 c75 -1 159 -5 187 -11 43 -8 212 -22 554 -46 l87 -6 -19 -47 c-111 -273
-232 -572 -296 -736 -44 -110 -97 -237 -119 -282 -23 -46 -38 -83 -35 -82 3 0
205 225 449 500 l445 499 80 -77 c264 -252 591 -612 728 -800 33 -46 62 -83
64 -83 1 0 -14 37 -35 83 -21 45 -68 159 -104 252 -36 94 -120 307 -187 474
-66 167 -119 305 -117 308 17 17 518 53 747 53 l165 1 -91 33 c-50 18 -192 76
-315 129 -315 134 -545 227 -563 227 -9 0 -22 13 -31 29 -8 17 -37 51 -63 78
-27 26 -51 55 -54 64 -4 9 -54 53 -112 98 -58 45 -106 85 -106 89 1 4 18 21
40 37 21 17 64 52 94 78 l55 48 208 -65 c114 -35 323 -99 463 -140 216 -64
378 -117 465 -151 27 -11 24 -8 -90 80 -55 43 -129 104 -165 135 -63 56 -271
227 -538 443 -72 60 -145 113 -161 118 -24 8 -30 17 -35 52 -16 103 -91 201
-194 252 -73 36 -185 44 -259 17z"/>
<path d="M1895 5620 c-38 -16 -297 -97 -575 -180 -278 -84 -515 -158 -528
-164 -19 -10 -34 -9 -80 7 -82 28 -216 21 -293 -15 -176 -81 -268 -282 -213
-469 19 -66 45 -110 100 -169 l42 -45 46 -230 c26 -126 72 -334 101 -461 108
-460 109 -509 20 -894 -60 -261 -155 -722 -155 -753 0 -11 -20 -37 -45 -59
-29 -25 -58 -66 -82 -116 -36 -72 -38 -81 -38 -171 1 -126 25 -189 106 -275
83 -90 153 -120 274 -121 61 0 106 6 141 18 49 17 52 17 95 -2 52 -23 387
-125 679 -206 174 -48 344 -101 425 -130 11 -4 -6 11 -38 34 -32 22 -189 150
-350 284 -161 133 -338 280 -395 326 -57 46 -106 90 -109 98 -3 7 7 64 23 124
l29 111 41 -6 c22 -3 71 -19 110 -37 97 -44 143 -59 148 -50 3 4 31 -1 63 -12
32 -10 84 -21 115 -22 50 -3 65 -9 115 -48 32 -24 206 -142 387 -262 181 -120
348 -235 370 -254 41 -37 41 -33 -4 34 -15 22 -89 157 -165 300 -76 143 -155
291 -176 328 -22 38 -39 72 -39 75 0 6 436 81 980 168 113 18 241 34 285 34
55 1 74 4 60 10 -11 5 -319 57 -685 115 -744 119 -710 113 -710 128 0 14 156
437 217 587 65 162 153 360 213 482 48 97 49 101 18 63 -54 -65 -119 -137
-378 -415 -136 -146 -288 -311 -339 -367 -51 -57 -97 -101 -101 -98 -5 3 -122
170 -260 371 -139 201 -254 363 -257 361 -4 -5 133 -956 142 -987 3 -9 -4 -34
-15 -55 -11 -22 -23 -57 -27 -78 -3 -21 -14 -44 -24 -51 -13 -8 -26 -43 -39
-97 -11 -46 -27 -105 -35 -130 -8 -26 -15 -54 -15 -63 0 -22 -10 -21 -140 27
l-115 42 -27 130 c-16 72 -44 193 -63 270 -18 77 -55 235 -82 350 -48 209 -48
211 -48 390 l0 180 68 290 c38 160 71 298 74 309 5 17 8 16 29 -10 45 -55 203
-291 244 -365 26 -46 39 -63 35 -44 -46 205 -83 469 -109 773 -14 157 -14 176
1 198 8 13 21 24 27 24 13 0 365 141 661 265 88 37 198 80 245 95 l85 29 -140
0 c-161 1 -437 21 -433 32 2 4 129 107 283 229 271 215 314 251 305 249 -3 0
-36 -13 -75 -29z"/>
<path d="M4850 5627 c0 -2 25 -21 55 -41 30 -20 164 -127 297 -239 l242 -202
-64 -8 c-36 -4 -175 -11 -309 -15 l-243 -7 505 -202 c278 -112 512 -203 520
-203 8 0 17 -6 20 -14 3 -7 -5 -85 -18 -172 -13 -88 -33 -238 -45 -334 -11
-96 -30 -237 -41 -313 -10 -76 -19 -141 -19 -145 0 -3 13 15 30 41 50 79 284
390 287 381 3 -11 55 -236 89 -389 78 -344 76 -406 -26 -850 -39 -166 -108
-485 -130 -596 l-11 -57 -132 -45 c-72 -25 -133 -44 -136 -42 -2 2 -21 71 -42
151 -21 81 -42 150 -47 153 -5 3 -14 28 -21 55 -7 27 -21 66 -32 88 -11 21
-17 43 -14 49 9 14 29 150 75 519 22 179 45 343 50 365 5 22 8 41 6 42 -2 2
-15 -15 -30 -38 -15 -22 -112 -154 -215 -292 -103 -139 -202 -273 -220 -299
-17 -27 -35 -48 -40 -48 -4 0 -59 57 -122 127 -63 70 -215 235 -338 368 -197
211 -312 341 -389 441 l-22 29 14 -35 c7 -19 124 -300 260 -624 136 -323 244
-592 239 -596 -10 -9 -415 -90 -628 -125 -196 -32 -496 -72 -615 -81 l-95 -8
115 -17 c63 -9 203 -33 310 -52 274 -51 511 -93 678 -120 78 -13 145 -26 147
-29 3 -3 -16 -43 -41 -89 -26 -46 -103 -192 -172 -324 -68 -132 -138 -259
-154 -282 -28 -41 -25 -61 3 -26 29 35 265 205 525 379 269 180 271 181 338
188 37 4 87 14 109 22 23 9 51 16 62 15 11 0 83 20 159 44 77 25 141 43 143
41 5 -4 63 -225 63 -237 0 -4 -73 -68 -162 -141 -90 -73 -272 -223 -405 -335
-134 -111 -263 -216 -288 -233 -25 -17 -45 -33 -45 -34 0 -2 53 13 118 34 64
21 270 84 457 139 187 55 396 119 465 141 117 39 127 40 165 28 22 -7 83 -13
135 -13 88 0 101 3 162 33 84 41 167 128 199 209 18 45 23 78 23 148 0 120
-25 184 -105 269 -34 37 -59 73 -59 85 0 23 -98 500 -106 512 -5 9 -58 239
-90 393 -17 85 -24 151 -24 231 0 122 11 187 98 565 27 118 69 305 92 415 43
198 44 200 85 245 113 122 143 271 85 425 -32 83 -131 182 -215 215 -74 29
-228 34 -285 9 -34 -16 -39 -15 -185 33 -83 28 -308 97 -502 154 -299 88 -437
133 -525 169 -10 4 -18 5 -18 2z"/>
<path d="M4250 1358 c-25 -22 -178 -129 -340 -238 -162 -109 -335 -228 -383
-264 -109 -81 -141 -86 -212 -32 -24 19 -181 125 -347 237 -260 173 -370 250
-437 303 -8 6 2 -14 21 -44 37 -58 230 -422 226 -425 -6 -4 -545 154 -628 184
-46 16 -86 29 -87 27 -2 -1 30 -26 71 -54 41 -28 176 -138 301 -244 125 -106
300 -251 389 -321 88 -70 169 -134 179 -142 9 -8 17 -24 17 -36 0 -44 59 -145
117 -200 80 -77 149 -103 269 -104 84 0 95 2 166 38 112 55 199 161 215 263 3
21 16 40 37 55 51 38 506 411 659 541 78 66 168 139 199 161 54 38 72 61 31
39 -38 -21 -660 -205 -674 -200 -6 2 139 270 247 456 14 23 21 42 17 42 -4 -1
-28 -19 -53 -42z"/>
</g>
</svg>
