<?xml version="1.0" encoding="utf-8"?>
<!-- Generator: Adobe Illustrator 24.0.0, SVG Export Plug-In . SVG Version: 6.00 Build 0)  -->
<svg version="1.1" id="Слой_1" xmlns="http://www.w3.org/2000/svg" xmlns:xlink="http://www.w3.org/1999/xlink" x="0px" y="0px"
	 viewBox="0 0 330.5 88.4" style="enable-background:new 0 0 330.5 88.4;" xml:space="preserve">
<style type="text/css">
	.st0{fill:#fff;}
	.st1{fill-rule:evenodd;clip-rule:evenodd;fill:#fff;}
</style>
<title>logo</title>
<g id="Слой_2_1_">
	<g id="Слой_1-2">
		<path class="st0" d="M154.2,66.3H128v-2.7l2.5-0.2c0.8,0,1.5-0.2,2.3-0.4c0.7-0.2,1.3-0.7,1.7-1.3c0.3-0.7,0.5-1.4,0.5-2.1V42.8
			h-20.7v16.3c0,0.7,0.2,1.4,0.5,2.1c0.4,0.7,1,1.2,1.7,1.4c0.7,0.3,1.5,0.5,2.2,0.6c0.8,0.2,1.7,0.3,2.6,0.4v2.7H95.1v-2.7
			c0.6,0,1.4-0.1,2.5-0.2c0.8-0.1,1.6-0.2,2.4-0.5c0.7-0.2,1.3-0.7,1.7-1.3c0.3-0.7,0.5-1.4,0.5-2.1V25.1c0-0.7-0.1-1.4-0.4-2
			c-0.4-0.7-1-1.2-1.8-1.4c-0.8-0.3-1.7-0.6-2.6-0.8c-0.8-0.2-1.6-0.3-2.3-0.4v-2.7h26.2v2.7c-0.8,0.1-1.7,0.2-2.5,0.4
			c-0.8,0.1-1.5,0.3-2.3,0.5c-0.8,0.2-1.4,0.7-1.8,1.4c-0.3,0.6-0.4,1.4-0.4,2.1v14.5H135V25.1c0-0.7-0.1-1.4-0.4-2
			c-0.4-0.7-1-1.2-1.8-1.4c-0.8-0.3-1.6-0.6-2.4-0.8c-0.8-0.2-1.6-0.4-2.4-0.5v-2.7h26.2v2.7c-0.7,0-1.6,0.1-2.5,0.3
			c-0.8,0.1-1.7,0.3-2.5,0.6c-0.8,0.2-1.4,0.7-1.7,1.4c-0.3,0.7-0.4,1.4-0.4,2.1v34.3c0,0.7,0.1,1.4,0.4,2.1c0.4,0.7,1,1.2,1.7,1.4
			c0.8,0.3,1.6,0.5,2.4,0.6c1,0.2,1.9,0.3,2.5,0.3L154.2,66.3z"/>
		<path class="st0" d="M203.8,23.2c2.4,2.2,4.4,4.9,5.7,7.9c1.4,3.3,2.2,7,2.1,10.6c0,3.4-0.6,6.9-1.8,10.1
			c-1.1,3.1-2.9,5.9-5.1,8.2c-2.4,2.4-5.2,4.3-8.3,5.6c-3.6,1.4-7.4,2.1-11.3,2c-3.4,0-6.8-0.6-10-1.8c-3.1-1.1-5.9-2.8-8.3-5.1
			c-2.4-2.2-4.3-4.9-5.6-7.9c-1.4-3.3-2.1-6.8-2.1-10.4c-0.1-3.7,0.6-7.4,2-10.8c1.3-3.1,3.2-6,5.6-8.3c2.4-2.3,5.2-4.1,8.4-5.2
			c6.6-2.4,13.9-2.4,20.5-0.1C198.6,19.3,201.4,21,203.8,23.2z M195,57.9c1.1-2.2,1.8-4.6,2.2-7c0.5-2.9,0.7-5.9,0.7-8.9
			c0-2.7-0.2-5.5-0.6-8.2c-0.3-2.4-1-4.8-2-7.1c-0.9-2-2.2-3.7-3.9-5c-1.7-1.3-3.8-1.9-6-1.9c-4.1,0-7.3,2-9.4,5.9
			c-2.1,3.9-3.2,9.4-3.2,16.6c0,2.9,0.2,5.7,0.7,8.6c0.4,2.4,1.1,4.8,2.2,7c0.9,1.9,2.2,3.5,3.9,4.7c1.7,1.2,3.7,1.8,5.8,1.7
			c2.1,0.1,4.1-0.5,5.8-1.7C192.8,61.4,194.1,59.8,195,57.9z"/>
		<path class="st0" d="M282.9,66.3h-26.3v-2.7c0.8-0.1,1.7-0.2,2.8-0.3c0.8-0.1,1.6-0.3,2.3-0.5c0.7-0.3,1.4-0.8,1.8-1.4
			c0.4-0.7,0.6-1.5,0.5-2.3V22.9l-16.7,42.6h-4.3c-0.2-0.8-0.7-2.2-1.5-4.5s-1.5-4-2-5.4l-12.2-33.3v29.5c-0.1,2.2,0.1,4.3,0.6,6.4
			c0.3,1.2,0.9,2.4,1.8,3.2c0.9,0.6,2,1.1,3.1,1.4c1,0.3,2,0.6,3.1,0.8v2.7h-20.8v-2.6c0.6-0.1,1.5-0.2,2.8-0.5
			c1.1-0.2,2.2-0.6,3.2-1.3c1-0.8,1.7-2,1.8-3.2c0.4-2.1,0.5-4.3,0.5-6.5v-24c0-1.2-0.1-2.5-0.6-3.6c-0.3-0.9-0.9-1.7-1.7-2.3
			c-0.8-0.7-1.8-1.1-2.8-1.4c-1-0.2-1.9-0.3-2.9-0.4v-2.7h22.3l12,31.9l10.1-25.9c0.4-1.1,0.7-2.3,1-3.4c0.2-0.9,0.4-1.7,0.5-2.6
			h21.5v2.7c-0.8,0.1-1.5,0.1-2.3,0.3c-0.8,0.1-1.5,0.3-2.3,0.5c-0.8,0.2-1.4,0.7-1.8,1.4c-0.3,0.7-0.4,1.4-0.4,2.1v34.3
			c0,0.7,0.1,1.4,0.4,2.1c0.4,0.7,1,1.2,1.8,1.5c0.7,0.3,1.5,0.5,2.2,0.6c1,0.2,1.8,0.3,2.4,0.4L282.9,66.3z"/>
		<path class="st0" d="M308.2,67.6c-2.8,0-5.6-0.4-8.2-1.2c-2.3-0.6-4.4-1.5-6.5-2.6l-2.4,2.4h-2.9l-0.5-17.5h2.9
			c0.7,1.8,1.6,3.6,2.5,5.3c1,1.8,2.2,3.5,3.5,5c1.3,1.5,2.9,2.7,4.7,3.7c1.8,1,3.9,1.5,6,1.4c3.1,0,5.5-0.8,7.1-2.3
			c1.6-1.5,2.5-3.5,2.5-5.7c0-1.8-0.7-3.6-2.1-4.8c-1.9-1.6-4.1-2.7-6.5-3.3l-5.2-1.8c-1.6-0.5-3.1-1.1-4.5-1.6
			c-2.9-1.1-5.5-3-7.3-5.6c-1.6-2.4-2.4-5.2-2.4-8.1c0-1.9,0.4-3.7,1.2-5.5c0.9-1.8,2.1-3.4,3.6-4.7c1.7-1.4,3.7-2.5,5.8-3.2
			c2.5-0.8,5.1-1.3,7.7-1.2c2.6,0,5.1,0.4,7.5,1.1c1.9,0.6,3.8,1.3,5.5,2.3l2.1-2h3l0.3,16.5h-2.9c-0.7-1.8-1.5-3.6-2.4-5.5
			c-0.8-1.7-1.8-3.2-2.9-4.6c-1.1-1.3-2.4-2.4-3.9-3.2c-1.6-0.8-3.3-1.2-5.1-1.2c-2.2-0.1-4.3,0.7-6,2.1c-1.5,1.3-2.4,3.2-2.3,5.2
			c-0.1,1.8,0.7,3.5,2,4.8c1.9,1.5,4,2.6,6.3,3.3l5.2,1.7c1.8,0.6,3.3,1.1,4.7,1.7c3,1,5.6,2.9,7.5,5.3c3,4.2,3.4,9.8,1.1,14.5
			c-0.9,1.9-2.3,3.6-4,4.9c-1.9,1.5-4,2.6-6.3,3.3C313.9,67.3,311.1,67.7,308.2,67.6z"/>
		<path class="st1" d="M38.9,10.9L38.9,10.9L38.9,10.9h-0.2h-0.2h-0.3L37.9,11l-0.3,0.1l-0.4,0.3l-0.4,0.1l-0.5,0.1l-1,0.3l-1.1,0.3
			l-1.2,0.3l-1.2,0.3l-1.3,0.4L28.1,14l-1.2,0.4l-1.1,0.4l-1.1,0.5l-0.9,0.4l0.9-0.5l0.4-0.3l0.4-0.3l0.5-0.4l0.5-0.4l0.6-0.5
			l0.6-0.5l0.7-0.6l0.8-0.7l0.9-0.7l1-0.8l0.5-0.4l0.6-0.5l0.6-0.5l0.6-0.5l0.6-0.5L34.8,7l0.7-0.6l0.8-0.6l0.5-0.2l0.6-0.1h0.5
			l0.5,0.1l0.5,0.2l0.5,0.3l0.4,0.4L40.1,7l0.2,0.5l0.1,0.6v0.6l-0.1,0.5l-0.2,0.5l-0.3,0.5l-0.4,0.4L38.9,10.9z M71.5,25.8
			l-0.8-0.6L70,24.6l-0.7-0.5l-0.7-0.5L68.1,23l-0.6-0.5l-0.6-0.5l-0.5-0.4l-1-0.8l-0.9-0.7l-0.8-0.7L63,18.8l-0.7-0.5l-0.6-0.5
			l-0.5-0.4L60.8,17l-0.5-0.3l-0.4-0.3L59,15.8l-0.8-0.4l-0.5-0.2L57.2,15l-0.6-0.2L56,14.6l-0.7-0.3l-0.8-0.2l-0.9-0.3l-1-0.3
			l-1.1-0.3l-1.2-0.4l-0.7-0.2l-0.7-0.2l-0.7-0.2L47.4,12l-0.8-0.3l-0.8-0.3l-0.9-0.3l-0.9-0.3l-0.5-0.3L43,10.2l-0.3-0.5l-0.2-0.5
			l-0.1-0.5V8.2l0.1-0.6L42.7,7l0.3-0.5l0.4-0.4l0.5-0.3l0.5-0.2L45,5.6h0.5l0.6,0.1l0.5,0.2l0.8,0.6l0.7,0.6l0.7,0.6l0.7,0.5
			l0.6,0.5l0.6,0.5l0.6,0.5l0.5,0.4l1,0.8l0.9,0.8l0.8,0.6l0.7,0.6l0.6,0.6l0.6,0.5l0.5,0.4l0.5,0.4l0.5,0.4l0.4,0.3l0.8,0.5
			l0.9,0.4l0.5,0.2l0.5,0.2l0.6,0.2l0.7,0.2l0.7,0.2l0.8,0.2l0.9,0.3l1,0.3l1.1,0.3l1.2,0.4l0.7,0.2l0.7,0.2l0.7,0.2l0.8,0.2
			l0.8,0.3l0.8,0.3l0.9,0.3l0.9,0.3l0.5,0.3l0.4,0.4l0.3,0.5l0.2,0.5l0.1,0.5v0.5l-0.1,0.5l-0.2,0.5l-0.3,0.5l-0.4,0.4l-0.5,0.3
			L73.8,26l-0.5,0.1h-0.6L72.1,26L71.5,25.8z M73.8,58.5l0.2-0.9l0.2-0.8l0.2-0.8l0.2-0.8l0.2-0.7l0.2-0.7l0.3-1.3l0.3-1.2l0.2-1
			l0.2-0.9l0.2-0.8l0.2-0.8l0.2-0.7l0.1-0.6l0.1-0.5l0.1-0.5V45v-0.9v-0.9v-0.5l-0.1-0.5l-0.1-0.5L76.3,41l-0.2-0.7L76,39.6
			l-0.2-0.8l-0.2-0.9l-0.2-1l-0.3-1.2l-0.3-1.3l-0.2-0.7L74.5,33l-0.2-0.8l-0.1-0.8l-0.2-0.8l-0.2-0.9l0.1-0.6l0.2-0.5l0.3-0.5
			l0.4-0.4l0.4-0.3l0.5-0.3l0.6-0.2l0.6-0.1l0.6,0.1l0.6,0.2l0.5,0.3l0.4,0.3l0.4,0.4l0.3,0.5l0.2,0.5l0.1,0.6l-0.2,0.9l-0.2,0.8
			l-0.2,0.8L78.9,33l-0.2,0.7l-0.1,0.7l-0.3,1.3L78,36.8l-0.2,1l-0.2,0.9l-0.2,0.8l-0.2,0.7L77.1,41L77,41.6l-0.1,0.5l-0.1,0.5
			l-0.1,0.5v0.9V45l0.1,0.5l0.1,0.5l0.1,0.5l0.1,0.6l0.1,0.7l0.2,0.8l0.2,0.8l0.2,0.9l0.2,1l0.3,1.1l0.3,1.3l0.1,0.7l0.2,0.7
			l0.2,0.8l0.2,0.8l0.2,0.8l0.2,0.9L79.5,59l-0.2,0.5L79.1,60l-0.4,0.4l-0.4,0.4L77.8,61l-0.6,0.2l-0.6,0.1l-0.6-0.1L75.6,61
			l-0.5-0.3l-0.4-0.3L74.3,60l-0.3-0.5L73.9,59L73.8,58.5z M44,77.1l0.9-0.3l0.9-0.3l0.8-0.3l0.8-0.3l0.8-0.2l0.7-0.2l0.7-0.2
			l0.7-0.2l1.2-0.3l1.1-0.3l1-0.3l0.9-0.3l0.8-0.2l0.7-0.2l0.7-0.2l0.6-0.2l0.5-0.2l0.5-0.2l0.9-0.4l0.8-0.5l0.4-0.3l0.5-0.3
			l0.5-0.4l0.5-0.4l0.6-0.5l0.6-0.5l0.7-0.6l0.8-0.7l0.9-0.7l1-0.8L67,66l0.6-0.5l0.6-0.5l0.6-0.5l0.6-0.5l0.7-0.6l0.7-0.6l0.8-0.6
			l0.5-0.2l0.6-0.1h0.6l0.5,0.1l0.5,0.2l0.5,0.3l0.4,0.4l0.3,0.5l0.2,0.5l0.1,0.6v0.5l-0.1,0.5l-0.2,0.5l-0.3,0.5l-0.4,0.4l-0.6,0.4
			l-0.9,0.3L72.4,68l-0.8,0.3l-0.8,0.3L70,68.8L69.3,69l-0.7,0.2l-0.7,0.2l-1.2,0.4l-1.1,0.3l-1,0.3l-0.9,0.3l-0.8,0.2l-0.7,0.2
			l-0.6,0.2L61,71.5l-0.5,0.2L60,71.8l-0.9,0.4l-0.8,0.5l-0.4,0.3l-0.5,0.3l-0.5,0.4l-0.5,0.4l-0.6,0.5l-0.7,0.5l-0.7,0.6l-0.8,0.7
			l-0.9,0.7l-1,0.8l-0.5,0.4l-0.6,0.5l-0.6,0.5l-0.6,0.5l-0.7,0.5L48.1,81l-0.7,0.6l-0.8,0.6l-0.5,0.2l-0.5,0.1H45l-0.5-0.1L44,82.2
			l-0.5-0.3l-0.4-0.4L42.8,81l-0.2-0.5l-0.1-0.6v-0.6l0.1-0.5l0.2-0.5l0.3-0.5l0.4-0.4L44,77.1z M11.4,62.4l0.8,0.6l0.7,0.6l0.7,0.5
			l0.7,0.5l0.6,0.5l0.6,0.5l0.6,0.5l0.5,0.4l1,0.8l0.9,0.7l0.8,0.7l0.7,0.6l0.6,0.5l0.6,0.5l0.5,0.4l0.5,0.4l0.5,0.3l0.4,0.3
			l0.9,0.5l-0.9-0.4l-0.5-0.2l-0.5-0.2l-0.6-0.2l-0.6-0.2l-0.7-0.2l-0.7-0.2l-0.9-0.3l-1-0.3l-1.1-0.3L15,69.5l-0.7-0.2L13.6,69
			l-0.7-0.2l-0.8-0.2l-0.8-0.3l-0.8-0.3l-0.9-0.3l-0.9-0.4l-0.4-0.3l-0.4-0.4l-0.3-0.5l-0.3-0.5l-0.1-0.5v-0.6l0.1-0.6l0.2-0.5
			l0.3-0.5l0.4-0.4l0.5-0.3l0.5-0.2l0.5-0.1h0.5l0.6,0.1L11.4,62.4z M23.8,72.3l0.9,0.4l0.5,0.2l0.5,0.2l0.6,0.2l0.6,0.2l0.7,0.2
			l0.8,0.2l0.9,0.3l1,0.3l1.1,0.3l1.2,0.3l0.7,0.2l0.7,0.2l0.7,0.2l0.8,0.2l0.8,0.3l0.8,0.3l0.9,0.3l0.9,0.3l0.5,0.3l0.4,0.4
			l0.3,0.5l0.2,0.5l0.1,0.5v0.6l-0.1,0.6L40.2,81l-0.3,0.5l-0.4,0.4L39,82.2l-0.5,0.2l-0.5,0.1h-0.5l-0.6-0.1l-0.5-0.2l-0.8-0.6
			L34.8,81l-0.7-0.6l-0.7-0.5l-0.6-0.5l-0.6-0.5l-0.5-0.5L31.2,78l-1-0.8l-0.8-0.7l-0.8-0.7l-0.7-0.6l-0.6-0.5l-0.6-0.5l-0.5-0.4
			l-0.5-0.3l-0.5-0.3l-0.4-0.3L23.8,72.3z M9,29.5l-0.2,0.9l-0.2,0.9L8.5,32l-0.2,0.8l-0.1,0.7l-0.1,0.7l-0.3,1.3l-0.3,1.2l-0.2,1
			l-0.2,1l-0.2,0.8l-0.2,0.8l-0.1,0.7l-0.1,0.6l-0.1,0.6l-0.1,0.6v0.5V44v0.9v0.5L6.3,46l0.1,0.5l0.1,0.6l0.1,0.7l0.2,0.7L7,49.4
			l0.2,0.9l0.2,1.1l0.3,1.2L8,53.9l0.2,0.6l0.2,0.7L8.5,56l0.2,0.8l0.2,0.8L9,58.5v0.6l-0.2,0.6l-0.3,0.5l-0.4,0.4l-0.4,0.4
			l-0.5,0.3l-0.5,0.2l-0.6,0.1l-0.6-0.1l-0.5-0.2l-0.5-0.3l-0.4-0.4l-0.3-0.4l-0.3-0.5l-0.2-0.6l-0.1-0.6l0.2-0.9l0.2-0.8L3.8,56
			L4,55.2l0.2-0.7l0.1-0.7l0.3-1.3l0.3-1.2L5,50.3l0.2-0.9l0.2-0.8l0.2-0.7l0.1-0.7l0.2-0.7L6,45.9L6,45.5L6.1,45v-0.9v-0.9L6,42.7
			L6,42.1l-0.1-0.6l-0.1-0.6l-0.1-0.7l-0.2-0.8l-0.2-0.8l-0.2-1l-0.2-1l-0.3-1.2l-0.3-1.3l-0.1-0.7l-0.2-0.7L3.8,32l-0.2-0.8
			l-0.2-0.9l-0.2-0.9l0.1-0.6l0.2-0.6l0.3-0.5l0.4-0.4l0.4-0.4L5,26.8l0.6-0.2l0.6,0l0.6,0.1l0.5,0.2l0.5,0.3l0.4,0.3l0.4,0.4
			l0.3,0.5L9,28.9L9,29.5z M23.8,15.7L23.8,15.7l-12.4,9.9l-0.5,0.2L10.2,26H9.7l-0.4-0.1l-0.5-0.2l-0.5-0.3l-0.4-0.4l-0.3-0.5
			l-0.3-0.6l-0.1-0.6v-0.5l0.1-0.5l0.2-0.5l0.3-0.5l0.5-0.4l0.5-0.3l0.9-0.3l0.9-0.3l0.9-0.3l0.8-0.3l0.8-0.2l0.7-0.2l0.7-0.2
			l0.6-0.2l1.2-0.4l1-0.3l1-0.3l0.9-0.3l0.8-0.2l0.7-0.2l0.6-0.2l0.6-0.2l0.5-0.2l0.5-0.2L23.8,15.7z"/>
		<path class="st1" d="M10,21.6l0.9,0h0.8l0.8,0h0.7l1.4,0.1l1.2,0.1l1.1,0.1l1,0.1l0.9,0.1l0.8,0.1l0.7,0h0.6h0.6H22h0.5h0.5
			l0.9-0.1L23,22.4l-0.4,0.1L22,22.7l-0.5,0.2L21,23.1l-0.6,0.2l-0.7,0.3L19,23.9l-0.8,0.3l-0.9,0.4l-1,0.4l-1.1,0.5L13.9,26
			l-0.7,0.3l-0.7,0.3l-0.8,0.3L11,27.2h-0.6l-0.6-0.1l-0.6,0l-0.5-0.3l-0.4-0.4L8,26l-0.3-0.6l-0.1-0.6v-0.6l0.1-0.5l0.2-0.5
			l0.3-0.5l0.4-0.4L9,22l0.5-0.3L10,21.6z M46.2,17.5l0.8,0.3l0.8,0.3l0.7,0.3l0.7,0.3l1.3,0.5l1.1,0.5l1,0.4l0.9,0.4l0.8,0.3
			l0.7,0.3l0.7,0.3l0.6,0.2l0.5,0.2l0.5,0.2l0.5,0.1l0.4,0.1l0.8,0.2l-0.9-0.1h-1h-1.1h-1.1l-2.2,0.1l-1.2,0.1l-1.1,0.1l-1,0.1
			l-1,0.1l-0.9,0.1L46.9,23l-0.3,0h-0.3H46l-0.2,0h-0.2h-0.1h-0.1l0,0l-0.5-0.2l-0.5-0.2l-0.5-0.2L43.5,22l-0.3-0.5L43,21l-0.1-0.5
			l0-0.6l0.2-0.5l0.2-0.5l0.3-0.4l0.4-0.4l0.5-0.3l0.5-0.2l0.6-0.1H46.2z M59.1,22.5l0.8,0.1h0.5h0.5h0.5l0.6,0h0.6h0.7l0.8-0.1
			l0.9-0.1l1-0.1l1.1-0.1l1.2-0.1l1.4-0.1l0.7,0h0.8l0.8,0l0.8,0l0.6,0.2l0.5,0.2l0.4,0.3l0.4,0.4l0.3,0.5l0.2,0.5l0.1,0.5v0.6
			l-0.2,0.5l-0.2,0.5l-0.3,0.5l-0.4,0.4l-0.5,0.3l-0.5,0.2l-0.6,0.1H72L59.1,22.5z M23.8,22.3l0.9-0.2L25,22l0.5-0.2l0.5-0.2
			l0.5-0.2l0.6-0.2l0.7-0.3l0.7-0.3l0.8-0.3l0.9-0.4l1-0.4l1.1-0.5l1.3-0.5l0.7-0.3l0.7-0.3l0.8-0.3l0.8-0.3h0.6l0.5,0.1l0.5,0.2
			l0.5,0.3l0.4,0.4l0.3,0.4l0.2,0.5l0.2,0.5v0.6L39.9,21l-0.2,0.5L39.4,22L39,22.4l-0.4,0.3L38.1,23l-0.6,0.1h-0.9l-0.8,0l-0.8,0
			h-0.7L33,22.9l-1.2-0.1l-1.1-0.1l-1-0.1l-0.9-0.1l-0.7-0.1l-0.7-0.1l-0.6,0h-0.6h-0.5h-1L23.8,22.3z"/>
		<path class="st1" d="M44.3,10.7l-0.7,0.6l-0.7,0.6l-0.7,0.6L41.5,13l2.9,2.3l0,0.6l-0.2,0.5l-0.3,0.5l-0.3,0.4l-0.4,0.4l-0.5,0.3
			l-0.5,0.2l-0.6,0.1l-0.6,0l-0.5-0.2l-0.5-0.3l-0.4-0.3l-0.3-0.4l-0.3-0.5l-0.2-0.5l-0.1-0.6l2.8-2.3l-0.4-0.1l-0.3-0.2l-0.3-0.2
			l-0.3-0.3l-0.3-0.3l-0.3-0.4L39,11.2l-0.5-0.4l0-0.6l0.2-0.6L39,9.1l0.3-0.4l0.4-0.4l0.5-0.3l0.5-0.2l0.6-0.1H42L42.5,8L43,8.3
			l0.4,0.3l0.4,0.4L44,9.6l0.2,0.5L44.3,10.7z M18.3,51l0.7-0.8l0.7-0.7l0.6-0.7L21,48l0.6-0.6l0.6-0.6l0.5-0.6l0.5-0.5l0.5-0.5
			l0.5-0.5l0.9-0.9l0.8-0.8l0.7-0.7l0.6-0.7l0.6-0.6l0.5-0.5l0.5-0.5l0.4-0.5l0.4-0.5l0.6-0.9l-0.5,0.8l-0.5,1l-0.5,1L28,41.8
			l-1,2.3L26,46.4l-0.5,1.1l-0.4,1.1l-0.4,1l-0.4,1l-0.3,0.9l-0.3,0.8l-0.1,0.3l-0.1,0.3l-0.1,0.3l-0.1,0.2l18,2.9h1.1l1.2-0.1
			l1.2-0.1l1.3-0.2l1.3-0.2l1.4-0.2l2.7-0.4l1.3-0.2l1.3-0.2l1.2-0.2l1.1-0.2l1-0.2l0.4-0.1l0.4-0.1l0.4-0.1l0.3-0.1l0.3-0.1h0.3
			l-6.7-15.9L52.3,37l-0.7-1l-0.8-1l-0.8-1l-1.8-2l-0.9-1l-0.9-1l-0.9-0.9l-0.8-0.9L44,27.5l-0.7-0.7L43,26.5l-0.3-0.3l-0.3-0.3
			l-0.3-0.3l-0.2-0.2l-0.2-0.2l-0.2-0.1L41.5,25L30,37.9l0.5-0.9l0.3-0.5l0.3-0.5l0.3-0.6l0.3-0.7l0.3-0.8l0.3-0.9l0.4-0.9L33,31
			l0.5-1.2l0.3-0.6l0.3-0.7l0.3-0.7l0.3-0.7l0.3-0.8l0.4-0.8l0.3-0.9l0.4-0.9l0.4-0.9l0.4-1l0.4-0.5l0.4-0.4l0.5-0.3l0.5-0.2
			l0.5-0.1h0.5l0.5,0.2l0.5,0.3l0.4,0.4l0.3,0.4l0.4-0.4l0.4-0.4l0.5-0.3l0.5-0.1h0.5l0.5,0.1l0.5,0.2l0.5,0.3l0.4,0.4l0.4,0.5
			l0.4,1l0.4,0.9l0.3,0.9l0.3,0.9l0.3,0.8l0.3,0.8l0.3,0.7l0.3,0.7l0.3,0.7l0.3,0.6l0.5,1.1l0.4,1.1l0.3,0.9l0.3,0.8l0.3,0.8
			l0.3,0.7l0.3,0.6l0.3,0.6l0.3,0.5l0.5,0.9l0.6,0.9l0.3,0.5l0.4,0.5l0.4,0.5l0.5,0.5l0.5,0.6l0.6,0.7l0.7,0.7l0.8,0.8l0.9,0.9
			l0.5,0.5l0.5,0.5l0.5,0.6l0.5,0.6l0.5,0.6l0.6,0.7l0.6,0.7l0.6,0.7l0.7,0.8l0.7,0.8l0.3,0.5l0.2,0.5v0.5L64.9,53l-0.2,0.5L64.4,54
			l-0.4,0.4l-0.5,0.4L63.1,55l-0.5,0.2l0.1,0.3l0.1,0.3v0.3v0.3l-0.1,0.6l-0.2,0.5l-0.3,0.5L62,58.5l-0.4,0.3l-0.5,0.3l-0.5,0.2
			h-0.6l-1.1-0.2l-1.1-0.2l-1-0.2l-1-0.2l-0.9-0.1l-0.9-0.1l-0.9-0.2L52.3,58l-0.8-0.1l-0.7-0.1l-0.7-0.1l-0.7-0.1l-1.2-0.2
			l-1.1-0.2l-1-0.2l-0.9-0.2l-0.8-0.1l-0.7-0.1l-0.6-0.1l-0.6-0.1h-1.2h-1.2l-0.6,0.1l-0.7,0.1l-0.7,0.1l-0.8,0.1l-0.9,0.1l-1,0.2
			l-1.1,0.2l-1.2,0.2l-0.6,0.1l-0.7,0.1l-0.7,0.1l-0.8,0.1L29.7,58l-0.9,0.1l-0.9,0.2L27,58.5l-1,0.2l-1,0.2l-1.1,0.2l-1.1,0.2
			L22.2,59l-0.5-0.2l-0.5-0.3l-0.4-0.4l-0.3-0.4l-0.3-0.5L20,56.8l0-0.6l0-0.5l0.1-0.4l-0.4-0.1l-0.4-0.2l-0.5-0.3l-0.4-0.4
			l-0.3-0.5L18,53.1l-0.1-0.5l0-0.5l0.1-0.5L18.3,51z"/>
		<polygon class="st1" points="10.4,28.1 10.4,28.2 10.4,28.2 10.4,28.4 10.4,28.5 10.5,28.7 10.5,29 10.5,29.3 10.5,29.6 
			10.6,30.4 10.7,31.3 10.8,32.2 10.9,33.2 11.1,35.3 11.3,36.3 11.5,37.4 11.7,38.3 11.8,39.2 12.1,40 12.2,40.3 12.3,40.7 
			19.5,51.1 19.7,51.6 19.7,52.2 19.6,52.8 19.5,53.3 19.2,53.8 18.8,54.2 18.4,54.5 17.9,54.8 17.3,55 16.8,55 16.2,55 15.7,54.8 
			15.2,54.5 14.8,54.2 14.4,53.7 14.1,53.2 12.3,40.7 12,39.9 11.5,39.1 11.1,38.3 10.5,37.4 9.3,35.7 8.7,34.8 8.1,34 7.5,33.3 
			6.9,32.5 6.4,31.9 6,31.3 5.8,31.1 5.6,30.9 5.4,30.7 5.3,30.5 5.2,30.4 5.1,30.3 5.1,30.3 5.1,30.2 4.9,29.7 4.9,29.1 4.9,28.6 
			5.1,28 5.4,27.6 5.7,27.1 6.2,26.8 6.7,26.5 7.2,26.3 7.8,26.3 8.4,26.4 8.9,26.5 9.4,26.8 9.8,27.2 10.1,27.6 		"/>
		<path class="st1" d="M77.7,30.5l-0.4,0.6l-0.4,0.6l-0.8,1.1l-0.7,1l-0.7,0.9l-0.6,0.8l-0.6,0.7l-0.5,0.6l-0.4,0.6L72.2,38
			l-0.4,0.5l-0.3,0.4l-0.3,0.4l-0.2,0.4L70.8,40l-0.3,0.7l-0.3,0.7l-0.1,0.4l-0.1,0.4L70,42.8l-0.1,0.5l-0.1,0.6l-0.1,0.6l-0.1,0.7
			l-0.1,0.8L69.5,47l-0.1,1l-0.1,1l-0.2,1.2l-0.2,1.4l-0.1,0.7l-0.1,0.8l-0.3,0.5L68,54l-0.4,0.4l-0.5,0.3l-0.5,0.2L66,54.9l-0.6,0
			l-0.5-0.2l-0.5-0.3l-0.4-0.4l-0.4-0.4l-0.3-0.5l-0.2-0.5l-0.1-0.5l0-0.6l0.2-0.6l0.4-0.6l0.4-0.6l0.8-1.1l0.7-1l0.7-0.9l0.6-0.8
			l0.6-0.7l0.5-0.7l0.4-0.6l0.4-0.5l0.3-0.5l0.3-0.4l0.3-0.4l0.3-0.4l0.2-0.3l0.3-0.7l0.3-0.7l0.1-0.4l0.1-0.4l0.1-0.5l0.1-0.5
			l0.1-0.6l0.1-0.6l0.1-0.7l0.1-0.8l0.1-0.9l0.1-1l0.1-1.1l0.2-1.2l0.2-1.4l0.1-0.7l0.1-0.8l0.3-0.5l0.3-0.4l0.4-0.4l0.5-0.3
			l0.5-0.2l0.6-0.1h0.6l0.6,0.2l0.5,0.3l0.4,0.4l0.4,0.4l0.3,0.5l0.2,0.5l0.1,0.6v0.6L77.7,30.5z M69.5,55.6l0.2,0.9l0.3,1l0.5,1.9
			l3.7-1.3l0.5,0.3l0.4,0.4l0.3,0.5l0.2,0.5l0.1,0.5V61l-0.1,0.6l-0.2,0.5L75,62.6L74.6,63l-0.5,0.3l-0.5,0.2l-0.5,0.1h-0.6L72,63.5
			l-0.5-0.2l-1-3.8l-0.2,0.1l-0.2,0.1l-0.3,0.1l-0.2,0.1l-0.2,0.1h-0.2L69,59.9l-0.2,0.1L68.5,60l-0.3,0.1l-0.4,0.1l-0.5,0.2
			l-0.6,0.2l-0.5-0.3l-0.4-0.4l-0.3-0.4L65.4,59l-0.1-0.5v-0.6l0.1-0.5l0.2-0.5l0.3-0.5l0.4-0.4l0.5-0.3l0.5-0.2l0.6-0.1h0.6
			l0.6,0.1L69.5,55.6z"/>
		<path class="st1" d="M63.6,61.2L63.6,61.2L63.6,61.2l-0.2,0.1l-0.2,0.2L63,61.6l-0.2,0.1l-0.3,0.2l-0.3,0.2l-0.7,0.4L60.8,63
			l-0.8,0.6L59,64.2l-1.8,1.2l-0.9,0.7l-0.8,0.6l-0.8,0.6L54,67.9l-0.6,0.5l-0.3,0.3l-0.2,0.2l0.5-0.6l0.3-0.4l0.3-0.4l0.3-0.4
			l0.3-0.5l0.3-0.6l0.3-0.6l0.3-0.7l0.4-0.8l0.4-0.8l0.5-1l0.5-1l0.6-1.1l0.3-0.6l0.3-0.6l0.4-0.7l0.4-0.7l0.4-0.4l0.5-0.3l0.5-0.2
			l0.5-0.1h0.5l0.5,0.1l0.5,0.2l0.5,0.3l0.4,0.4l0.3,0.5l0.2,0.5l0.1,0.5v0.5l-0.1,0.5L64,60.8L63.6,61.2z M16,60.8l-0.4-0.1
			l-0.4-0.1l-0.6-0.3l-0.4-0.2l-0.4-0.2l-0.4-0.1l-0.3-0.1l-0.4-0.1h-0.4l-1,3.8l-0.5,0.2l-0.6,0.1H9.7l-0.6-0.1l-0.5-0.2L8.2,63
			l-0.4-0.4l-0.3-0.5l-0.3-0.5l-0.1-0.6v-0.5L7.2,60l0.2-0.5L7.7,59l0.4-0.4l0.5-0.3l3.7,1.3v-0.2v-0.2v-0.2l0.1-0.2l0.2-0.2v-0.1
			l0.1-0.2v-0.2l0.1-0.3l0.1-0.3l0.1-0.4l0.1-0.5l0.1-0.6l0.5-0.2l0.6-0.1h0.6l0.6,0.1l0.5,0.2l0.5,0.3l0.4,0.4l0.3,0.5l0.2,0.5
			l0.1,0.6v0.5l-0.1,0.5L17,59.6L16.7,60l-0.4,0.4L16,60.8z M36.4,80.4L36,79.7L35.7,79l-0.4-0.7L35,77.7l-0.6-1.1l-0.5-1l-0.5-0.9
			l-0.4-0.8l-0.4-0.7l-0.4-0.7l-0.3-0.6l-0.3-0.6l-0.3-0.5L31,70.3l-0.3-0.4l-0.3-0.3L30,68.9l0.6,0.6l0.3,0.3l0.4,0.3l0.4,0.3
			l0.5,0.3l0.5,0.3l0.6,0.4l0.6,0.4l0.7,0.5l0.8,0.5l0.9,0.6l1,0.6l1.1,0.7l0.6,0.4l0.6,0.4l0.6,0.4l0.7,0.5l0.3,0.5l0.1,0.5
			l0.1,0.5v0.6l-0.1,0.6l-0.2,0.5l-0.3,0.5l-0.4,0.4L40,80.9l-0.5,0.2l-0.5,0.1h-0.6l-0.5-0.1L37.3,81l-0.5-0.3L36.4,80.4z M30,68.9
			l-0.6-0.6L29.1,68l-0.4-0.3l-0.4-0.3l-0.5-0.3l-0.5-0.4l-0.6-0.3L26.1,66l-0.7-0.5L24.6,65l-0.9-0.6l-1-0.7l-1.1-0.7l-0.6-0.4
			l-0.6-0.4l-0.6-0.4l-0.6-0.5l-0.3-0.5l-0.2-0.5l-0.1-0.5v-0.6l0.1-0.5l0.2-0.5l0.3-0.5l0.4-0.4l0.5-0.3l0.5-0.3l0.5-0.1h0.6
			l0.5,0.1l0.6,0.2l0.5,0.3l0.4,0.4l0.4,0.7l0.4,0.7l0.4,0.6l0.3,0.6l0.6,1.1l0.5,1l0.5,0.9l0.4,0.8l0.4,0.8l0.4,0.7l0.3,0.6
			l0.3,0.5l0.3,0.5l0.3,0.4l0.3,0.4l0.3,0.4L30,68.9z M53,68.9L53,68.9l-6.4,11.5l-0.4,0.4L45.6,81l-0.5,0.2l-0.5,0.1H44l-0.5-0.1
			l-0.5-0.2l-0.5-0.3l-0.4-0.4l-0.3-0.5l-0.2-0.5l-0.1-0.6V78l0.1-0.5l0.2-0.5l0.3-0.5l0.6-0.5l0.6-0.4l0.6-0.4l0.6-0.4l1-0.7l1-0.7
			l0.9-0.6l0.8-0.5l0.7-0.5l0.7-0.4l0.6-0.4l0.5-0.3l0.5-0.3l0.4-0.3l0.4-0.3l0.3-0.3L53,68.9z"/>
		<polygon class="st1" points="41.5,15.3 41.9,15.3 42.4,15.4 42.8,15.5 43.2,15.6 43.6,15.8 43.9,16 44.3,16.3 44.6,16.6 
			44.9,16.9 45.1,17.2 45.3,17.6 45.5,17.9 45.6,18.3 45.8,18.8 45.8,19.2 45.9,19.6 45.8,20.1 45.8,20.5 45.6,20.9 45.5,21.4 
			45.3,21.7 45.1,22.1 44.9,22.4 44.6,22.7 44.3,23 43.9,23.3 43.6,23.5 43.2,23.7 42.8,23.8 42.4,23.9 41.9,24 41.5,24 41,24 
			40.6,23.9 40.2,23.8 39.8,23.7 39.4,23.5 39,23.3 38.7,23 38.4,22.7 38.1,22.4 37.8,22.1 37.6,21.7 37.5,21.4 37.3,20.9 
			37.2,20.5 37.1,20.1 37.1,19.6 37.1,19.2 37.2,18.8 37.3,18.3 37.5,17.9 37.6,17.6 37.8,17.2 38.1,16.9 38.4,16.6 38.7,16.3 
			39,16 39.4,15.8 39.8,15.6 40.2,15.5 40.6,15.4 41,15.3 		"/>
		<polygon class="st1" points="41.5,15.3 41.5,14.7 42,14.7 42.5,14.8 42.9,14.9 43.4,15.1 43.2,15.6 43,16.2 42.6,16 42.2,16 
			41.9,15.9 41.5,15.9 		"/>
		<polygon class="st1" points="43.2,15.6 43.4,15.1 43.8,15.3 44.2,15.5 44.6,15.8 45,16.1 44.6,16.6 44.2,17 43.9,16.7 43.6,16.5 
			43,16.2 		"/>
		<polygon class="st1" points="44.6,16.6 45,16.1 45.3,16.5 45.6,16.9 45.9,17.3 46.1,17.7 45.5,17.9 45,18.2 44.6,17.5 44.4,17.2 
			44.2,17 		"/>
		<polygon class="st1" points="45.5,17.9 46.1,17.7 46.2,18.2 46.3,18.6 46.4,19.1 46.5,19.6 45.9,19.6 45.3,19.6 45.3,19.2 
			45.2,18.9 45,18.2 		"/>
		<polygon class="st1" points="45.9,19.6 46.5,19.6 46.4,20.1 46.3,20.6 46.2,21.1 46.1,21.6 45.5,21.4 45,21.1 45.1,20.8 
			45.2,20.4 45.3,20 45.3,19.6 		"/>
		<polygon class="st1" points="45.5,21.4 46.1,21.6 45.9,22 45.6,22.4 45.3,22.8 45,23.2 44.6,22.7 44.2,22.3 44.4,22.1 44.6,21.8 
			45,21.1 		"/>
		<polygon class="st1" points="44.6,22.7 45,23.2 44.6,23.5 44.2,23.8 43.8,24 43.4,24.2 43.2,23.7 43,23.2 43.6,22.8 43.9,22.6 
			44.2,22.3 		"/>
		<polygon class="st1" points="43.2,23.7 43.4,24.2 43,24.4 42.5,24.5 42,24.6 41.5,24.6 41.5,24 41.5,23.5 41.9,23.4 42.2,23.4 
			42.6,23.3 43,23.2 		"/>
		<polygon class="st1" points="41.5,24 41.5,24.6 41,24.6 40.5,24.5 40,24.4 39.5,24.2 39.8,23.7 40,23.2 40.7,23.4 41.1,23.4 
			41.5,23.5 		"/>
		<polygon class="st1" points="39.8,23.7 39.5,24.2 39.1,24 38.7,23.8 38.3,23.5 38,23.2 38.4,22.7 38.8,22.3 39.1,22.6 39.4,22.8 
			40,23.2 		"/>
		<polygon class="st1" points="38.4,22.7 38,23.2 37.6,22.8 37.4,22.4 37.1,22 36.9,21.6 37.5,21.4 38,21.1 38.3,21.8 38.5,22.1 
			38.8,22.3 		"/>
		<polygon class="st1" points="37.5,21.4 36.9,21.6 36.7,21.1 36.6,20.6 36.6,20.1 36.5,19.6 37.1,19.6 37.7,19.6 37.7,20 
			37.8,20.4 37.9,20.8 38,21.1 		"/>
		<polygon class="st1" points="37.1,19.6 36.5,19.6 36.6,19.1 36.6,18.6 36.7,18.2 36.9,17.7 37.5,17.9 38,18.2 37.9,18.5 
			37.8,18.9 37.7,19.2 37.7,19.6 		"/>
		<polygon class="st1" points="37.5,17.9 36.9,17.7 37.1,17.3 37.4,16.9 37.6,16.5 38,16.1 38.4,16.6 38.8,17 38.5,17.2 38.3,17.5 
			38.1,17.8 38,18.2 		"/>
		<polygon class="st1" points="38.4,16.6 38,16.1 38.3,15.8 38.7,15.5 39.1,15.3 39.5,15.1 39.8,15.6 40,16.2 39.7,16.3 39.3,16.5 
			39.1,16.7 38.8,17 		"/>
		<polygon class="st1" points="39.8,15.6 39.5,15.1 40,14.9 40.5,14.8 41,14.7 41.5,14.7 41.5,15.3 41.5,15.9 41.1,15.9 40.7,16 
			40.3,16 40,16.2 		"/>
		<polygon class="st1" points="18.4,51.8 18.9,51.8 19.3,51.9 19.7,52 20.2,52.1 20.5,52.3 20.9,52.5 21.2,52.8 21.5,53.1 
			21.8,53.4 22.1,53.7 22.3,54.1 22.5,54.4 22.6,54.9 22.7,55.3 22.8,55.7 22.8,56.2 22.8,56.6 22.7,57 22.6,57.5 22.5,57.9 
			22.3,58.2 22.1,58.6 21.8,59 21.5,59.3 21.2,59.6 20.9,59.8 20.5,60 20.2,60.2 19.7,60.3 19.3,60.5 18.9,60.5 18.4,60.5 18,60.5 
			17.6,60.5 17.1,60.3 16.7,60.2 16.4,60 16,59.8 15.7,59.6 15.3,59.3 15.1,59 14.8,58.6 14.6,58.2 14.4,57.9 14.3,57.5 14.2,57 
			14.1,56.6 14.1,56.2 14.1,55.7 14.2,55.3 14.3,54.9 14.4,54.4 14.6,54.1 14.8,53.7 15.1,53.4 15.3,53.1 15.7,52.8 16,52.5 
			16.4,52.3 16.7,52.1 17.1,52 17.6,51.9 18,51.8 		"/>
		<polygon class="st1" points="18.4,51.8 18.4,51.2 18.9,51.3 19.4,51.3 19.9,51.4 20.4,51.6 20.2,52.1 19.9,52.7 19.6,52.6 
			19.2,52.5 18.8,52.4 18.4,52.4 		"/>
		<polygon class="st1" points="20.2,52.1 20.4,51.6 20.8,51.8 21.2,52.1 21.6,52.3 21.9,52.7 21.5,53.1 21.1,53.5 20.8,53.2 
			20.6,53 19.9,52.7 		"/>
		<polygon class="st1" points="21.5,53.1 21.9,52.7 22.3,53 22.6,53.4 22.8,53.8 23,54.2 22.5,54.4 21.9,54.7 21.6,54.1 21.4,53.8 
			21.1,53.5 		"/>
		<polygon class="st1" points="22.5,54.4 23,54.2 23.2,54.7 23.3,55.2 23.4,55.6 23.4,56.2 22.8,56.2 22.2,56.2 22.2,55.8 
			22.2,55.4 21.9,54.7 		"/>
		<polygon class="st1" points="22.8,56.2 23.4,56.2 23.4,56.7 23.3,57.2 23.2,57.6 23,58.1 22.5,57.9 21.9,57.6 22.1,57.3 
			22.2,56.9 22.2,56.5 22.2,56.2 		"/>
		<polygon class="st1" points="22.5,57.9 23,58.1 22.8,58.5 22.6,58.9 22.3,59.3 21.9,59.7 21.5,59.3 21.1,58.8 21.4,58.6 
			21.6,58.3 21.9,57.6 		"/>
		<polygon class="st1" points="21.5,59.3 21.9,59.7 21.6,60 21.2,60.3 20.8,60.5 20.4,60.8 20.2,60.2 19.9,59.7 20.6,59.3 
			20.8,59.1 21.1,58.8 		"/>
		<polygon class="st1" points="20.2,60.2 20.4,60.8 19.9,60.9 19.4,61 18.9,61.1 18.4,61.1 18.4,60.5 18.4,60 18.8,59.9 19.2,59.9 
			19.6,59.8 19.9,59.7 		"/>
		<polygon class="st1" points="18.4,60.5 18.4,61.1 17.9,61.1 17.4,61 17,60.9 16.5,60.8 16.7,60.2 17,59.7 17.7,59.9 18,59.9 
			18.4,60 		"/>
		<polygon class="st1" points="16.7,60.2 16.5,60.8 16.1,60.5 15.6,60.3 15.3,60 14.9,59.7 15.3,59.3 15.8,58.8 16,59.1 16.3,59.3 
			17,59.7 		"/>
		<polygon class="st1" points="15.3,59.3 14.9,59.7 14.6,59.3 14.3,58.9 14.1,58.5 13.9,58.1 14.4,57.9 15,57.6 15.3,58.3 
			15.5,58.6 15.8,58.8 		"/>
		<polygon class="st1" points="14.4,57.9 13.9,58.1 13.7,57.6 13.6,57.2 13.5,56.7 13.5,56.2 14.1,56.2 14.7,56.2 14.7,56.5 
			14.7,56.9 14.8,57.3 15,57.6 		"/>
		<polygon class="st1" points="14.1,56.2 13.5,56.2 13.5,55.6 13.6,55.2 13.7,54.7 13.9,54.2 14.4,54.4 15,54.7 14.8,55 14.7,55.4 
			14.7,55.8 14.7,56.2 		"/>
		<polygon class="st1" points="14.4,54.4 13.9,54.2 14.1,53.8 14.3,53.4 14.6,53 14.9,52.7 15.3,53.1 15.8,53.5 15.5,53.8 15.3,54 
			15.1,54.4 15,54.7 		"/>
		<polygon class="st1" points="15.3,53.1 14.9,52.7 15.3,52.3 15.7,52.1 16.1,51.8 16.5,51.6 16.7,52.1 17,52.7 16.6,52.8 16.3,53 
			16,53.2 15.8,53.5 		"/>
		<polygon class="st1" points="16.7,52.1 16.5,51.6 17,51.4 17.4,51.3 17.9,51.3 18.4,51.2 18.4,51.8 18.4,52.4 18,52.4 17.7,52.5 
			17.3,52.6 17,52.7 		"/>
		<polygon class="st1" points="64.3,51.7 64.8,51.7 65.2,51.8 65.6,51.9 66,52 66.4,52.2 66.8,52.4 67.1,52.7 67.4,53 67.7,53.3 
			68,53.6 68.2,54 68.4,54.3 68.5,54.7 68.6,55.2 68.7,55.6 68.7,56 68.7,56.5 68.6,56.9 68.5,57.4 68.4,57.8 68.2,58.1 68,58.5 
			67.7,58.8 67.4,59.1 67.1,59.4 66.8,59.7 66.4,59.9 66,60.1 65.6,60.2 65.2,60.3 64.8,60.4 64.3,60.4 63.9,60.4 63.4,60.3 
			63,60.2 62.6,60.1 62.2,59.9 61.9,59.7 61.5,59.4 61.2,59.1 60.9,58.8 60.7,58.5 60.5,58.1 60.3,57.8 60.1,57.4 60.1,56.9 
			60,56.5 60,56 60,55.6 60.1,55.2 60.1,54.7 60.3,54.3 60.5,54 60.7,53.6 60.9,53.3 61.2,53 61.5,52.7 61.9,52.4 62.2,52.2 
			62.6,52 63,51.9 63.4,51.8 63.9,51.7 		"/>
		<polygon class="st1" points="64.3,51.7 64.3,51.1 64.8,51.1 65.3,51.2 65.8,51.3 66.2,51.5 66,52 65.8,52.6 65.5,52.4 65.1,52.4 
			64.7,52.3 64.3,52.3 		"/>
		<polygon class="st1" points="66,52 66.2,51.5 66.7,51.7 67.1,51.9 67.5,52.2 67.8,52.5 67.4,53 67,53.4 66.7,53.1 66.4,52.9 
			65.8,52.6 		"/>
		<polygon class="st1" points="67.4,53 67.8,52.5 68.2,52.9 68.4,53.3 68.7,53.7 68.9,54.1 68.4,54.3 67.8,54.6 67.5,53.9 
			67.3,53.6 67,53.4 		"/>
		<polygon class="st1" points="68.4,54.3 68.9,54.1 69.1,54.6 69.2,55 69.3,55.5 69.3,56 68.7,56 68.1,56 68.1,55.6 68.1,55.3 
			67.8,54.6 		"/>
		<polygon class="st1" points="68.7,56 69.3,56 69.3,56.5 69.2,57 69.1,57.5 68.9,58 68.4,57.8 67.8,57.5 67.9,57.2 68.1,56.8 
			68.1,56.4 68.1,56 		"/>
		<polygon class="st1" points="68.4,57.8 68.9,58 68.7,58.4 68.4,58.8 68.2,59.2 67.8,59.6 67.4,59.1 67,58.7 67.3,58.5 67.5,58.2 
			67.8,57.5 		"/>
		<polygon class="st1" points="67.4,59.1 67.8,59.6 67.5,59.9 67.1,60.2 66.7,60.4 66.2,60.6 66,60.1 65.8,59.6 66.4,59.2 66.7,59 
			67,58.7 		"/>
		<polygon class="st1" points="66,60.1 66.2,60.6 65.8,60.8 65.3,60.9 64.8,61 64.3,61 64.3,60.4 64.3,59.9 64.7,59.8 65.1,59.8 
			65.5,59.7 65.8,59.6 		"/>
		<polygon class="st1" points="64.3,60.4 64.3,61 63.8,61 63.3,60.9 62.8,60.8 62.4,60.6 62.6,60.1 62.8,59.6 63.5,59.8 63.9,59.8 
			64.3,59.9 		"/>
		<polygon class="st1" points="62.6,60.1 62.4,60.6 61.9,60.4 61.5,60.2 61.2,59.9 60.8,59.6 61.2,59.1 61.6,58.7 61.9,59 
			62.2,59.2 62.8,59.6 		"/>
		<polygon class="st1" points="61.2,59.1 60.8,59.6 60.5,59.2 60.2,58.8 60,58.4 59.8,58 60.3,57.8 60.8,57.5 61.2,58.2 61.4,58.5 
			61.6,58.7 		"/>
		<polygon class="st1" points="60.3,57.8 59.8,58 59.6,57.5 59.5,57 59.4,56.5 59.4,56 60,56 60.6,56 60.6,56.4 60.6,56.8 
			60.7,57.2 60.8,57.5 		"/>
		<polygon class="st1" points="60,56 59.4,56 59.4,55.5 59.5,55 59.6,54.6 59.8,54.1 60.3,54.3 60.8,54.6 60.7,54.9 60.6,55.3 
			60.6,55.6 60.6,56 		"/>
		<polygon class="st1" points="60.3,54.3 59.8,54.1 60,53.7 60.2,53.3 60.5,52.9 60.8,52.5 61.2,53 61.6,53.4 61.4,53.6 61.2,53.9 
			61,54.2 60.8,54.6 		"/>
		<polygon class="st1" points="61.2,53 60.8,52.5 61.2,52.2 61.5,51.9 62,51.7 62.4,51.5 62.6,52 62.8,52.6 62.5,52.7 62.2,52.9 
			61.9,53.1 61.6,53.4 		"/>
		<polygon class="st1" points="62.6,52 62.4,51.5 62.8,51.3 63.3,51.2 63.8,51.1 64.3,51.1 64.3,51.7 64.3,52.3 63.9,52.3 
			63.5,52.4 63.2,52.4 62.8,52.6 		"/>
		<polygon class="st1" points="76.7,20.9 77.1,21 77.6,21 78,21.1 78.4,21.3 78.8,21.5 79.1,21.7 79.5,21.9 79.8,22.2 80.1,22.5 
			80.3,22.9 80.5,23.2 80.7,23.6 80.9,24 81,24.4 81,24.9 81.1,25.3 81,25.8 81,26.2 80.9,26.6 80.7,27 80.5,27.4 80.3,27.8 
			80.1,28.1 79.8,28.4 79.5,28.7 79.1,29 78.8,29.2 78.4,29.3 78,29.5 77.6,29.6 77.1,29.7 76.7,29.7 76.2,29.7 75.8,29.6 
			75.4,29.5 75,29.3 74.6,29.2 74.2,29 73.9,28.7 73.6,28.4 73.3,28.1 73.1,27.8 72.8,27.4 72.7,27 72.5,26.6 72.4,26.2 72.3,25.8 
			72.3,25.3 72.3,24.9 72.4,24.4 72.5,24 72.7,23.6 72.8,23.2 73.1,22.9 73.3,22.5 73.6,22.2 73.9,21.9 74.2,21.7 74.6,21.5 
			75,21.3 75.4,21.1 75.8,21 76.2,21 		"/>
		<polygon class="st1" points="76.7,20.9 76.7,20.4 77.2,20.4 77.7,20.5 78.1,20.6 78.6,20.7 78.4,21.3 78.2,21.8 77.8,21.7 
			77.4,21.6 77.1,21.6 76.7,21.5 		"/>
		<polygon class="st1" points="78.4,21.3 78.6,20.7 79,20.9 79.4,21.2 79.8,21.5 80.2,21.8 79.8,22.2 79.4,22.6 79.1,22.4 
			78.8,22.2 78.2,21.8 		"/>
		<polygon class="st1" points="79.8,22.2 80.2,21.8 80.5,22.1 80.8,22.5 81.1,22.9 81.3,23.4 80.7,23.6 80.2,23.8 79.8,23.2 
			79.6,22.9 79.4,22.6 		"/>
		<polygon class="st1" points="80.7,23.6 81.3,23.4 81.4,23.8 81.5,24.3 81.6,24.8 81.7,25.3 81.1,25.3 80.5,25.3 80.5,24.9 
			80.4,24.5 80.2,23.8 		"/>
		<polygon class="st1" points="81.1,25.3 81.7,25.3 81.6,25.8 81.5,26.3 81.4,26.8 81.3,27.2 80.7,27 80.2,26.8 80.3,26.4 
			80.4,26.1 80.5,25.7 80.5,25.3 		"/>
		<polygon class="st1" points="80.7,27 81.3,27.2 81.1,27.7 80.8,28.1 80.5,28.5 80.2,28.8 79.8,28.4 79.4,28 79.6,27.7 79.8,27.4 
			80.2,26.8 		"/>
		<polygon class="st1" points="79.8,28.4 80.2,28.8 79.8,29.1 79.4,29.4 79,29.7 78.6,29.9 78.4,29.3 78.2,28.8 78.8,28.4 
			79.1,28.2 79.4,28 		"/>
		<polygon class="st1" points="78.4,29.3 78.6,29.9 78.2,30.1 77.7,30.2 77.2,30.3 76.7,30.3 76.7,29.7 76.7,29.1 77.1,29.1 
			77.4,29 77.8,28.9 78.2,28.8 		"/>
		<polygon class="st1" points="76.7,29.7 76.7,30.3 76.2,30.3 75.7,30.2 75.2,30.1 74.7,29.9 75,29.3 75.2,28.8 75.9,29 76.3,29.1 
			76.7,29.1 		"/>
		<polygon class="st1" points="75,29.3 74.7,29.9 74.3,29.7 73.9,29.4 73.5,29.1 73.2,28.8 73.6,28.4 74,28 74.3,28.2 74.6,28.4 
			75.2,28.8 		"/>
		<polygon class="st1" points="73.6,28.4 73.2,28.8 72.8,28.5 72.6,28.1 72.3,27.7 72.1,27.2 72.7,27 73.2,26.8 73.5,27.4 
			73.7,27.7 74,28 		"/>
		<polygon class="st1" points="72.7,27 72.1,27.2 71.9,26.8 71.8,26.3 71.8,25.8 71.7,25.3 72.3,25.3 72.9,25.3 72.9,25.7 73,26.1 
			73.1,26.4 73.2,26.8 		"/>
		<polygon class="st1" points="72.3,25.3 71.7,25.3 71.8,24.8 71.8,24.3 71.9,23.8 72.1,23.4 72.7,23.6 73.2,23.8 73.1,24.2 
			73,24.5 72.9,24.9 72.9,25.3 		"/>
		<polygon class="st1" points="72.7,23.6 72.1,23.4 72.3,23 72.6,22.5 72.8,22.1 73.2,21.8 73.6,22.2 74,22.6 73.7,22.9 73.5,23.2 
			73.4,23.5 73.2,23.8 		"/>
		<polygon class="st1" points="73.6,22.2 73.2,21.8 73.5,21.5 73.9,21.2 74.3,20.9 74.7,20.7 75,21.3 75.2,21.8 74.9,22 74.5,22.2 
			74.3,22.4 74,22.6 		"/>
		<polygon class="st1" points="75,21.3 74.7,20.7 75.2,20.6 75.7,20.5 76.2,20.4 76.7,20.4 76.7,20.9 76.7,21.5 76.3,21.6 
			75.9,21.6 75.5,21.7 75.2,21.8 		"/>
		<polygon class="st1" points="6.1,20.8 6.6,20.8 7,20.9 7.5,20.9 7.9,21.1 8.2,21.3 8.6,21.5 8.9,21.8 9.2,22 9.5,22.4 9.8,22.7 
			10,23 10.2,23.4 10.3,23.8 10.4,24.2 10.5,24.7 10.5,25.1 10.5,25.6 10.4,26 10.3,26.4 10.2,26.8 10,27.2 9.8,27.6 9.5,27.9 
			9.2,28.2 8.9,28.5 8.6,28.8 8.2,29 7.9,29.2 7.5,29.3 7,29.4 6.6,29.5 6.1,29.5 5.7,29.5 5.3,29.4 4.9,29.3 4.4,29.2 4.1,29 
			3.7,28.8 3.4,28.5 3.1,28.2 2.8,27.9 2.5,27.6 2.3,27.2 2.1,26.8 2,26.4 1.9,26 1.8,25.6 1.8,25.1 1.8,24.7 1.9,24.2 2,23.8 
			2.1,23.4 2.3,23 2.5,22.7 2.8,22.4 3.1,22 3.4,21.8 3.7,21.5 4.1,21.3 4.4,21.1 4.9,20.9 5.3,20.9 5.7,20.8 		"/>
		<polygon class="st1" points="6.1,20.8 6.1,20.2 6.6,20.2 7.2,20.3 7.6,20.4 8.1,20.6 7.9,21.1 7.6,21.6 7.3,21.5 6.9,21.4 
			6.5,21.4 6.1,21.4 		"/>
		<polygon class="st1" points="7.9,21.1 8.1,20.6 8.5,20.8 8.9,21 9.3,21.3 9.7,21.6 9.2,22 8.8,22.4 8.6,22.2 8.3,22 7.6,21.6 		
			"/>
		<polygon class="st1" points="9.2,22 9.7,21.6 10,22 10.3,22.3 10.5,22.7 10.7,23.2 10.2,23.4 9.7,23.6 9.3,23 9.1,22.7 8.8,22.4 
					"/>
		<polygon class="st1" points="10.2,23.4 10.7,23.2 10.9,23.6 11,24.1 11.1,24.6 11.1,25.1 10.5,25.1 10,25.1 9.9,24.7 9.9,24.4 
			9.7,23.6 		"/>
		<polygon class="st1" points="10.5,25.1 11.1,25.1 11.1,25.6 11,26.1 10.9,26.6 10.7,27 10.2,26.8 9.7,26.6 9.8,26.3 9.9,25.9 
			9.9,25.5 10,25.1 		"/>
		<polygon class="st1" points="10.2,26.8 10.7,27 10.5,27.5 10.3,27.9 10,28.3 9.7,28.6 9.2,28.2 8.8,27.8 9.1,27.5 9.3,27.3 
			9.7,26.6 		"/>
		<polygon class="st1" points="9.2,28.2 9.7,28.6 9.3,29 8.9,29.3 8.5,29.5 8.1,29.7 7.9,29.2 7.6,28.6 8.3,28.3 8.6,28.1 8.8,27.8 
					"/>
		<polygon class="st1" points="7.9,29.2 8.1,29.7 7.6,29.9 7.2,30 6.6,30.1 6.1,30.1 6.1,29.5 6.1,28.9 6.5,28.9 6.9,28.9 7.3,28.7 
			7.6,28.6 		"/>
		<polygon class="st1" points="6.1,29.5 6.1,30.1 5.6,30.1 5.2,30 4.7,29.9 4.2,29.7 4.4,29.2 4.7,28.6 5.4,28.9 5.7,28.9 6.1,28.9 
					"/>
		<polygon class="st1" points="4.4,29.2 4.2,29.7 3.8,29.5 3.4,29.3 3,29 2.6,28.6 3.1,28.2 3.5,27.8 3.7,28.1 4,28.3 4.7,28.6 		
			"/>
		<polygon class="st1" points="3.1,28.2 2.6,28.6 2.3,28.3 2,27.9 1.8,27.5 1.6,27 2.1,26.8 2.7,26.6 3,27.3 3.2,27.5 3.5,27.8 		
			"/>
		<polygon class="st1" points="2.1,26.8 1.6,27 1.4,26.6 1.3,26.1 1.2,25.6 1.2,25.1 1.8,25.1 2.4,25.1 2.4,25.5 2.5,25.9 2.5,26.3 
			2.7,26.6 		"/>
		<polygon class="st1" points="1.8,25.1 1.2,25.1 1.2,24.6 1.3,24.1 1.4,23.6 1.6,23.2 2.1,23.4 2.7,23.6 2.5,24 2.5,24.4 2.4,24.7 
			2.4,25.1 		"/>
		<polygon class="st1" points="2.1,23.4 1.6,23.2 1.8,22.8 2,22.4 2.3,22 2.6,21.6 3.1,22 3.5,22.4 3.2,22.7 3,23 2.8,23.3 
			2.7,23.6 		"/>
		<polygon class="st1" points="3.1,22 2.6,21.6 3,21.3 3.4,21 3.8,20.8 4.2,20.6 4.4,21.1 4.7,21.6 4.3,21.8 4,22 3.7,22.2 
			3.5,22.4 		"/>
		<polygon class="st1" points="4.4,21.1 4.2,20.6 4.7,20.4 5.2,20.3 5.6,20.2 6.1,20.2 6.1,20.8 6.1,21.4 5.7,21.4 5.4,21.4 5,21.5 
			4.7,21.6 		"/>
		<polygon class="st1" points="6.1,58.5 6.6,58.5 7,58.6 7.5,58.7 7.9,58.8 8.2,59 8.6,59.2 8.9,59.5 9.2,59.8 9.5,60.1 9.8,60.4 
			10,60.8 10.2,61.1 10.3,61.6 10.4,62 10.5,62.4 10.5,62.8 10.5,63.3 10.4,63.7 10.3,64.2 10.2,64.6 10,64.9 9.8,65.3 9.5,65.7 
			9.2,66 8.9,66.3 8.6,66.5 8.2,66.7 7.9,66.9 7.5,67 7,67.2 6.6,67.2 6.1,67.2 5.7,67.2 5.3,67.2 4.9,67 4.4,66.9 4.1,66.7 
			3.7,66.5 3.4,66.3 3.1,66 2.8,65.7 2.5,65.3 2.3,64.9 2.1,64.6 2,64.2 1.9,63.7 1.8,63.3 1.8,62.8 1.8,62.4 1.9,62 2,61.6 
			2.1,61.1 2.3,60.8 2.5,60.4 2.8,60.1 3.1,59.8 3.4,59.5 3.7,59.2 4.1,59 4.4,58.8 4.9,58.7 5.3,58.6 5.7,58.5 		"/>
		<polygon class="st1" points="6.1,58.5 6.1,57.9 6.6,57.9 7.2,58 7.6,58.1 8.1,58.3 7.9,58.8 7.6,59.4 7.3,59.3 6.9,59.2 6.5,59.1 
			6.1,59.1 		"/>
		<polygon class="st1" points="7.9,58.8 8.1,58.3 8.5,58.5 8.9,58.8 9.3,59 9.7,59.4 9.2,59.8 8.8,60.2 8.6,59.9 8.3,59.7 7.6,59.4 
					"/>
		<polygon class="st1" points="9.2,59.8 9.7,59.4 10,59.7 10.3,60.1 10.5,60.5 10.7,60.9 10.2,61.1 9.7,61.4 9.3,60.8 9.1,60.5 
			8.8,60.2 		"/>
		<polygon class="st1" points="10.2,61.1 10.7,60.9 10.9,61.4 11,61.9 11.1,62.3 11.1,62.8 10.5,62.8 10,62.8 9.9,62.5 9.9,62.1 
			9.7,61.4 		"/>
		<polygon class="st1" points="10.5,62.8 11.1,62.8 11.1,63.4 11,63.9 10.9,64.3 10.7,64.8 10.2,64.6 9.7,64.3 9.8,64 9.9,63.6 
			9.9,63.2 10,62.8 		"/>
		<polygon class="st1" points="10.2,64.6 10.7,64.8 10.5,65.2 10.3,65.6 10,66 9.7,66.4 9.2,66 8.8,65.5 9.1,65.3 9.3,65 9.7,64.3 
					"/>
		<polygon class="st1" points="9.2,66 9.7,66.4 9.3,66.7 8.9,67 8.5,67.2 8.1,67.5 7.9,66.9 7.6,66.4 8.3,66 8.6,65.8 8.8,65.5 		
			"/>
		<polygon class="st1" points="7.9,66.9 8.1,67.5 7.6,67.6 7.2,67.7 6.6,67.8 6.1,67.8 6.1,67.2 6.1,66.7 6.5,66.6 6.9,66.6 
			7.3,66.5 7.6,66.4 		"/>
		<polygon class="st1" points="6.1,67.2 6.1,67.8 5.6,67.8 5.2,67.7 4.7,67.6 4.2,67.5 4.4,66.9 4.7,66.4 5.4,66.6 5.7,66.6 
			6.1,66.7 		"/>
		<polygon class="st1" points="4.4,66.9 4.2,67.5 3.8,67.2 3.4,67 3,66.7 2.6,66.4 3.1,66 3.5,65.5 3.7,65.8 4,66 4.7,66.4 		"/>
		<polygon class="st1" points="3.1,66 2.6,66.4 2.3,66 2,65.6 1.8,65.2 1.6,64.8 2.1,64.6 2.7,64.3 3,65 3.2,65.3 3.5,65.5 		"/>
		<polygon class="st1" points="2.1,64.6 1.6,64.8 1.4,64.3 1.3,63.9 1.2,63.4 1.2,62.8 1.8,62.8 2.4,62.8 2.4,63.2 2.5,63.6 2.5,64 
			2.7,64.3 		"/>
		<polygon class="st1" points="1.8,62.8 1.2,62.8 1.2,62.3 1.3,61.9 1.4,61.4 1.6,60.9 2.1,61.1 2.7,61.4 2.5,61.7 2.5,62.1 
			2.4,62.5 2.4,62.8 		"/>
		<polygon class="st1" points="2.1,61.1 1.6,60.9 1.8,60.5 2,60.1 2.3,59.7 2.6,59.4 3.1,59.8 3.5,60.2 3.2,60.5 3,60.7 2.8,61.1 
			2.7,61.4 		"/>
		<polygon class="st1" points="3.1,59.8 2.6,59.4 3,59 3.4,58.8 3.8,58.5 4.2,58.3 4.4,58.8 4.7,59.4 4.3,59.5 4,59.7 3.7,59.9 
			3.5,60.2 		"/>
		<polygon class="st1" points="4.4,58.8 4.2,58.3 4.7,58.1 5.2,58 5.6,57.9 6.1,57.9 6.1,58.5 6.1,59.1 5.7,59.1 5.4,59.2 5,59.3 
			4.7,59.4 		"/>
		<polygon class="st1" points="76.7,58.4 77.1,58.4 77.6,58.5 78,58.6 78.4,58.8 78.8,58.9 79.1,59.1 79.5,59.4 79.8,59.7 80.1,60 
			80.3,60.3 80.5,60.7 80.7,61.1 80.9,61.5 81,61.9 81,62.3 81.1,62.8 81,63.2 81,63.7 80.9,64.1 80.7,64.5 80.5,64.9 80.3,65.2 
			80.1,65.6 79.8,65.9 79.5,66.2 79.1,66.4 78.8,66.6 78.4,66.8 78,66.9 77.6,67.1 77.1,67.1 76.7,67.2 76.2,67.1 75.8,67.1 
			75.4,66.9 75,66.8 74.6,66.6 74.2,66.4 73.9,66.2 73.6,65.9 73.3,65.6 73.1,65.2 72.8,64.9 72.7,64.5 72.5,64.1 72.4,63.7 
			72.3,63.2 72.3,62.8 72.3,62.3 72.4,61.9 72.5,61.5 72.7,61.1 72.8,60.7 73.1,60.3 73.3,60 73.6,59.7 73.9,59.4 74.2,59.1 
			74.6,58.9 75,58.8 75.4,58.6 75.8,58.5 76.2,58.4 		"/>
		<polygon class="st1" points="76.7,58.4 76.7,57.8 77.2,57.9 77.7,57.9 78.1,58 78.6,58.2 78.4,58.8 78.2,59.3 77.8,59.2 
			77.4,59.1 77.1,59 76.7,59 		"/>
		<polygon class="st1" points="78.4,58.8 78.6,58.2 79,58.4 79.4,58.7 79.8,58.9 80.2,59.3 79.8,59.7 79.4,60.1 79.1,59.8 
			78.8,59.6 78.2,59.3 		"/>
		<polygon class="st1" points="79.8,59.7 80.2,59.3 80.5,59.6 80.8,60 81.1,60.4 81.3,60.8 80.7,61.1 80.2,61.3 79.8,60.7 
			79.6,60.4 79.4,60.1 		"/>
		<polygon class="st1" points="80.7,61.1 81.3,60.8 81.4,61.3 81.5,61.8 81.6,62.3 81.7,62.8 81.1,62.8 80.5,62.8 80.5,62.4 
			80.4,62 80.2,61.3 		"/>
		<polygon class="st1" points="81.1,62.8 81.7,62.8 81.6,63.3 81.5,63.8 81.4,64.3 81.3,64.7 80.7,64.5 80.2,64.3 80.3,63.9 
			80.4,63.5 80.5,63.1 80.5,62.8 		"/>
		<polygon class="st1" points="80.7,64.5 81.3,64.7 81.1,65.1 80.8,65.5 80.5,65.9 80.2,66.3 79.8,65.9 79.4,65.4 79.6,65.2 
			79.8,64.9 80.2,64.3 		"/>
		<polygon class="st1" points="79.8,65.9 80.2,66.3 79.8,66.6 79.4,66.9 79,67.2 78.6,67.4 78.4,66.8 78.2,66.3 78.8,65.9 
			79.1,65.7 79.4,65.4 		"/>
		<polygon class="st1" points="78.4,66.8 78.6,67.4 78.2,67.5 77.7,67.6 77.2,67.7 76.7,67.8 76.7,67.2 76.7,66.6 77.1,66.6 
			77.4,66.5 77.8,66.4 78.2,66.3 		"/>
		<polygon class="st1" points="76.7,67.2 76.7,67.8 76.2,67.7 75.7,67.6 75.2,67.5 74.7,67.4 75,66.8 75.2,66.3 75.9,66.5 
			76.3,66.6 76.7,66.6 		"/>
		<polygon class="st1" points="75,66.8 74.7,67.4 74.3,67.2 73.9,66.9 73.5,66.6 73.2,66.3 73.6,65.9 74,65.4 74.3,65.7 74.6,65.9 
			75.2,66.3 		"/>
		<polygon class="st1" points="73.6,65.9 73.2,66.3 72.8,65.9 72.6,65.5 72.3,65.1 72.1,64.7 72.7,64.5 73.2,64.3 73.5,64.9 
			73.7,65.2 74,65.4 		"/>
		<polygon class="st1" points="72.7,64.5 72.1,64.7 71.9,64.2 71.8,63.8 71.8,63.3 71.7,62.8 72.3,62.8 72.9,62.8 72.9,63.1 
			73,63.5 73.1,63.9 73.2,64.3 		"/>
		<polygon class="st1" points="72.3,62.8 71.7,62.8 71.8,62.3 71.8,61.8 71.9,61.3 72.1,60.8 72.7,61.1 73.2,61.3 73.1,61.6 73,62 
			72.9,62.4 72.9,62.8 		"/>
		<polygon class="st1" points="72.7,61.1 72.1,60.8 72.3,60.4 72.6,60 72.8,59.6 73.2,59.3 73.6,59.7 74,60.1 73.7,60.4 73.5,60.6 
			73.4,61 73.2,61.3 		"/>
		<polygon class="st1" points="73.6,59.7 73.2,59.3 73.5,58.9 73.9,58.7 74.3,58.4 74.7,58.2 75,58.8 75.2,59.3 74.9,59.4 
			74.5,59.6 74.3,59.8 74,60.1 		"/>
		<polygon class="st1" points="75,58.8 74.7,58.2 75.2,58 75.7,57.9 76.2,57.9 76.7,57.8 76.7,58.4 76.7,59 76.3,59 75.9,59.1 
			75.5,59.2 75.2,59.3 		"/>
		<polygon class="st1" points="41.5,77.3 41.9,77.3 42.4,77.4 42.8,77.5 43.2,77.6 43.6,77.8 43.9,78 44.3,78.3 44.6,78.5 
			44.9,78.9 45.1,79.2 45.3,79.6 45.5,79.9 45.6,80.3 45.8,80.8 45.8,81.2 45.9,81.6 45.8,82.1 45.8,82.5 45.6,82.9 45.5,83.4 
			45.3,83.7 45.1,84.1 44.9,84.4 44.6,84.7 44.3,85 43.9,85.3 43.6,85.5 43.2,85.7 42.8,85.8 42.4,85.9 41.9,86 41.5,86 41,86 
			40.6,85.9 40.2,85.8 39.8,85.7 39.4,85.5 39,85.3 38.7,85 38.4,84.7 38.1,84.4 37.8,84.1 37.6,83.7 37.5,83.4 37.3,82.9 
			37.2,82.5 37.1,82.1 37.1,81.6 37.1,81.2 37.2,80.8 37.3,80.3 37.5,79.9 37.6,79.6 37.8,79.2 38.1,78.9 38.4,78.5 38.7,78.3 
			39,78 39.4,77.8 39.8,77.6 40.2,77.5 40.6,77.4 41,77.3 		"/>
		<polygon class="st1" points="41.5,77.3 41.5,76.7 42,76.7 42.5,76.8 42.9,76.9 43.4,77.1 43.2,77.6 43,78.2 42.6,78 42.2,77.9 
			41.9,77.9 41.5,77.9 		"/>
		<polygon class="st1" points="43.2,77.6 43.4,77.1 43.8,77.3 44.2,77.5 44.6,77.8 45,78.1 44.6,78.5 44.2,79 43.9,78.7 43.6,78.5 
			43,78.2 		"/>
		<polygon class="st1" points="44.6,78.5 45,78.1 45.3,78.5 45.6,78.8 45.9,79.3 46.1,79.7 45.5,79.9 45,80.2 44.6,79.5 44.4,79.2 
			44.2,79 		"/>
		<polygon class="st1" points="45.5,79.9 46.1,79.7 46.2,80.2 46.3,80.6 46.4,81.1 46.5,81.6 45.9,81.6 45.3,81.6 45.3,81.2 
			45.2,80.9 45,80.2 		"/>
		<polygon class="st1" points="45.9,81.6 46.5,81.6 46.4,82.1 46.3,82.6 46.2,83.1 46.1,83.6 45.5,83.4 45,83.1 45.1,82.8 
			45.2,82.4 45.3,82 45.3,81.6 		"/>
		<polygon class="st1" points="45.5,83.4 46.1,83.6 45.9,84 45.6,84.4 45.3,84.8 45,85.1 44.6,84.7 44.2,84.3 44.4,84 44.6,83.8 
			45,83.1 		"/>
		<polygon class="st1" points="44.6,84.7 45,85.1 44.6,85.5 44.2,85.8 43.8,86 43.4,86.2 43.2,85.7 43,85.1 43.6,84.8 43.9,84.6 
			44.2,84.3 		"/>
		<polygon class="st1" points="43.2,85.7 43.4,86.2 43,86.4 42.5,86.5 42,86.6 41.5,86.6 41.5,86 41.5,85.4 41.9,85.4 42.2,85.4 
			42.6,85.3 43,85.1 		"/>
		<polygon class="st1" points="41.5,86 41.5,86.6 41,86.6 40.5,86.5 40,86.4 39.5,86.2 39.8,85.7 40,85.1 40.7,85.4 41.1,85.4 
			41.5,85.4 		"/>
		<polygon class="st1" points="39.8,85.7 39.5,86.2 39.1,86 38.7,85.8 38.3,85.5 38,85.1 38.4,84.7 38.8,84.3 39.1,84.6 39.4,84.8 
			40,85.1 		"/>
		<polygon class="st1" points="38.4,84.7 38,85.1 37.6,84.8 37.4,84.4 37.1,84 36.9,83.6 37.5,83.4 38,83.1 38.3,83.8 38.5,84 
			38.8,84.3 		"/>
		<polygon class="st1" points="37.5,83.4 36.9,83.6 36.7,83.1 36.6,82.6 36.6,82.1 36.5,81.6 37.1,81.6 37.7,81.6 37.7,82 
			37.8,82.4 37.9,82.8 38,83.1 		"/>
		<polygon class="st1" points="37.1,81.6 36.5,81.6 36.6,81.1 36.6,80.6 36.7,80.2 36.9,79.7 37.5,79.9 38,80.2 37.9,80.5 
			37.8,80.9 37.7,81.2 37.7,81.6 		"/>
		<polygon class="st1" points="37.5,79.9 36.9,79.7 37.1,79.3 37.4,78.9 37.6,78.5 38,78.1 38.4,78.5 38.8,79 38.5,79.2 38.3,79.5 
			38.1,79.8 38,80.2 		"/>
		<polygon class="st1" points="38.4,78.5 38,78.1 38.3,77.8 38.7,77.5 39.1,77.3 39.5,77.1 39.8,77.6 40,78.2 39.7,78.3 39.3,78.5 
			39.1,78.7 38.8,79 		"/>
		<polygon class="st1" points="39.8,77.6 39.5,77.1 40,76.9 40.5,76.8 41,76.7 41.5,76.7 41.5,77.3 41.5,77.9 41.1,77.9 40.7,77.9 
			40.3,78 40,78.2 		"/>
		<polygon class="st1" points="41.5,1.5 41.9,1.5 42.4,1.5 42.8,1.6 43.2,1.8 43.6,2 43.9,2.2 44.3,2.4 44.6,2.7 44.9,3 45.1,3.4 
			45.3,3.7 45.5,4.1 45.6,4.5 45.8,4.9 45.8,5.4 45.9,5.8 45.8,6.3 45.8,6.7 45.6,7.1 45.5,7.5 45.3,7.9 45.1,8.3 44.9,8.6 
			44.6,8.9 44.3,9.2 43.9,9.5 43.6,9.7 43.2,9.9 42.8,10 42.4,10.1 41.9,10.2 41.5,10.2 41,10.2 40.6,10.1 40.2,10 39.8,9.9 
			39.4,9.7 39,9.5 38.7,9.2 38.4,8.9 38.1,8.6 37.8,8.3 37.6,7.9 37.5,7.5 37.3,7.1 37.2,6.7 37.1,6.3 37.1,5.8 37.1,5.4 37.2,4.9 
			37.3,4.5 37.5,4.1 37.6,3.7 37.8,3.4 38.1,3 38.4,2.7 38.7,2.4 39,2.2 39.4,2 39.8,1.8 40.2,1.6 40.6,1.5 41,1.5 		"/>
	</g>
</g>
</svg>
