<?xml version="1.0" encoding="utf-8"?>
<!-- Generator: Adobe Illustrator 17.0.0, SVG Export Plug-In . SVG Version: 6.00 Build 0)  -->
<!DOCTYPE svg PUBLIC "-//W3C//DTD SVG 1.1//EN" "http://www.w3.org/Graphics/SVG/1.1/DTD/svg11.dtd">
<svg version="1.1" id="Слой_1" xmlns="http://www.w3.org/2000/svg" xmlns:xlink="http://www.w3.org/1999/xlink" x="0px" y="0px"
	 width="4.688px" height="5.063px" viewBox="0 6.438 4.688 5.063" enable-background="new 0 6.438 4.688 5.063"
	 xml:space="preserve">
<title>logo</title>
<path fill="#FFFFFF" d="M2.119,7.186L2.119,7.186L2.119,7.186H2.108H2.097H2.08L2.064,7.192L2.048,7.197L2.026,7.214L2.004,7.219
	L1.977,7.225L1.923,7.241l-0.06,0.016L1.797,7.274L1.732,7.29L1.661,7.312L1.53,7.355L1.465,7.377l-0.06,0.022l-0.06,0.027
	L1.296,7.448l0.049-0.027l0.022-0.016l0.022-0.016l0.027-0.022l0.027-0.022l0.033-0.027L1.509,7.29l0.038-0.033L1.59,7.219
	l0.049-0.038l0.054-0.044l0.027-0.022l0.033-0.027l0.033-0.027l0.033-0.027l0.033-0.027l0.044-0.033l0.038-0.033l0.044-0.033
	l0.027-0.011l0.033-0.005h0.027l0.027,0.005l0.027,0.011l0.027,0.016l0.022,0.022l0.016,0.027l0.011,0.027L2.2,7.034v0.033
	L2.195,7.094L2.184,7.121L2.168,7.148L2.146,7.17L2.119,7.186z M3.894,7.998L3.851,7.965L3.812,7.933L3.774,7.905L3.736,7.878
	L3.709,7.845L3.676,7.818L3.644,7.791L3.616,7.769L3.562,7.726L3.513,7.687L3.469,7.649L3.431,7.617L3.393,7.589L3.36,7.562
	L3.333,7.54L3.311,7.519L3.284,7.502L3.262,7.486L3.213,7.453L3.17,7.431L3.143,7.421L3.115,7.41L3.083,7.399L3.05,7.388
	L3.012,7.372L2.968,7.361L2.919,7.344L2.865,7.328l-0.06-0.016L2.739,7.29L2.701,7.279L2.663,7.268L2.625,7.257L2.582,7.246
	L2.538,7.23L2.494,7.214L2.445,7.197L2.396,7.181L2.369,7.165L2.342,7.148L2.326,7.121L2.315,7.094L2.309,7.067V7.039l0.005-0.033
	l0.011-0.033l0.016-0.027l0.022-0.022l0.027-0.016l0.027-0.011h0.033h0.027l0.033,0.005l0.027,0.011l0.044,0.033L2.62,6.979
	l0.038,0.033l0.038,0.027l0.033,0.027l0.033,0.027l0.033,0.027l0.027,0.022l0.054,0.044L2.925,7.23l0.044,0.033l0.038,0.033
	l0.033,0.033l0.033,0.027l0.027,0.022l0.027,0.022l0.027,0.022l0.022,0.016l0.044,0.027l0.049,0.022l0.027,0.011l0.027,0.011
	l0.033,0.011L3.393,7.53L3.431,7.54l0.044,0.011l0.049,0.016l0.054,0.016L3.638,7.6l0.065,0.022l0.038,0.011L3.78,7.644l0.038,0.011
	l0.044,0.011l0.044,0.016l0.044,0.016l0.049,0.016l0.049,0.016l0.027,0.016l0.022,0.022l0.016,0.027l0.011,0.027l0.005,0.027v0.027
	L4.123,7.905L4.112,7.933L4.096,7.96L4.074,7.982L4.047,7.998L4.019,8.009L3.992,8.014H3.959L3.927,8.009L3.894,7.998z M4.019,9.779
	L4.03,9.73l0.011-0.044l0.011-0.044l0.011-0.044l0.011-0.038l0.011-0.038l0.016-0.071l0.016-0.065l0.011-0.054l0.011-0.049
	L4.15,9.24l0.011-0.044l0.011-0.038l0.005-0.033l0.005-0.027l0.005-0.027V9.044V8.995V8.946V8.918L4.183,8.891L4.177,8.864
	L4.156,8.826L4.145,8.788L4.139,8.749L4.128,8.706L4.117,8.657L4.107,8.602L4.09,8.537L4.074,8.466L4.063,8.428L4.057,8.39
	L4.047,8.346L4.041,8.303L4.03,8.259L4.019,8.21l0.005-0.033L4.036,8.15l0.016-0.027l0.022-0.022l0.022-0.016l0.027-0.016
	l0.033-0.011l0.033-0.005l0.033,0.005l0.033,0.011l0.027,0.016l0.022,0.016l0.022,0.022L4.341,8.15l0.011,0.027L4.357,8.21
	L4.346,8.259L4.335,8.303L4.324,8.346L4.297,8.39L4.286,8.428L4.281,8.466L4.264,8.537l-0.016,0.06L4.237,8.651L4.226,8.7
	L4.215,8.744L4.205,8.782L4.199,8.826L4.194,8.858L4.188,8.886L4.183,8.913L4.177,8.94v0.049v0.054l0.005,0.027l0.005,0.027
	l0.005,0.027l0.005,0.033l0.005,0.038L4.215,9.24l0.011,0.044l0.011,0.049l0.011,0.054l0.016,0.06l0.016,0.071l0.005,0.038
	l0.011,0.038l0.011,0.044l0.011,0.044L4.33,9.724l0.011,0.049L4.33,9.806L4.319,9.833L4.308,9.861L4.286,9.882L4.264,9.904
	L4.237,9.915L4.205,9.926L4.172,9.931L4.139,9.926L4.117,9.915L4.09,9.899L4.068,9.882L4.047,9.861L4.03,9.833L4.025,9.806
	L4.019,9.779z M2.396,10.792l0.049-0.016l0.049-0.016l0.044-0.016l0.044-0.016l0.044-0.011l0.038-0.011l0.038-0.011l0.038-0.011
	l0.065-0.016l0.06-0.016l0.054-0.016l0.049-0.016l0.044-0.011l0.038-0.011l0.038-0.011l0.033-0.011l0.027-0.011l0.027-0.011
	l0.049-0.022l0.044-0.027l0.022-0.016l0.027-0.016l0.027-0.022l0.027-0.022L3.404,10.4l0.033-0.027l0.038-0.033l0.044-0.038
	l0.049-0.038l0.054-0.044l0.027-0.033l0.033-0.027l0.033-0.027l0.033-0.027l0.033-0.027l0.038-0.033l0.038-0.033L3.9,9.98
	l0.027-0.011l0.033-0.005h0.033l0.027,0.005L4.047,9.98l0.027,0.016l0.022,0.022l0.016,0.027l0.011,0.027l0.005,0.033v0.027
	L4.123,10.16l-0.011,0.027l-0.016,0.027l-0.022,0.022l-0.033,0.022l-0.049,0.016l-0.049,0.022L3.9,10.313l-0.044,0.016L3.812,10.34
	l-0.038,0.011l-0.038,0.011l-0.038,0.011l-0.065,0.022l-0.06,0.016l-0.054,0.016l-0.049,0.016l-0.044,0.011l-0.038,0.011
	l-0.033,0.011l-0.033,0.011l-0.027,0.011l-0.027,0.005l-0.049,0.022l-0.044,0.027l-0.022,0.016l-0.027,0.016l-0.027,0.022
	l-0.027,0.022l-0.033,0.027l-0.038,0.027l-0.038,0.033l-0.044,0.038L2.87,10.792l-0.054,0.044l-0.027,0.022l-0.033,0.027
	l-0.033,0.027L2.69,10.939l-0.038,0.027L2.62,11.004l-0.038,0.033L2.538,11.07L2.511,11.08l-0.027,0.005H2.451L2.424,11.08
	L2.396,11.07l-0.027-0.016l-0.022-0.022l-0.016-0.027L2.32,10.977l-0.005-0.033v-0.033l0.005-0.027l0.011-0.027l0.016-0.027
	l0.022-0.022L2.396,10.792z M0.621,9.991l0.044,0.033l0.038,0.033l0.038,0.027l0.038,0.027l0.033,0.027l0.033,0.027l0.033,0.027
	l0.027,0.022l0.054,0.044l0.049,0.038l0.044,0.038l0.038,0.033l0.033,0.027l0.033,0.027l0.027,0.022l0.027,0.022l0.027,0.016
	l0.022,0.016l0.049,0.027l-0.049-0.022l-0.027-0.011l-0.027-0.011L1.171,10.47L1.138,10.46L1.1,10.449l-0.038-0.011l-0.049-0.016
	l-0.054-0.016l-0.06-0.016l-0.082-0.011l-0.038-0.011l-0.038-0.016L0.703,10.34l-0.044-0.011l-0.044-0.016l-0.044-0.016L0.523,10.28
	l-0.049-0.022l-0.022-0.016L0.43,10.22l-0.016-0.027l-0.016-0.027l-0.005-0.027v-0.033l0.005-0.033l0.011-0.027l0.016-0.027
	l0.022-0.022L0.474,9.98l0.027-0.011l0.027-0.005h0.027l0.033,0.005L0.621,9.991z M1.296,10.53l0.049,0.022l0.027,0.011L1.4,10.574
	l0.033,0.011l0.033,0.011l0.038,0.011l0.044,0.011l0.049,0.016L1.65,10.65l0.06,0.016l0.065,0.016l0.038,0.011l0.038,0.011
	l0.038,0.011l0.044,0.011l0.044,0.016l0.044,0.016l0.049,0.016l0.049,0.016l0.027,0.016l0.022,0.022l0.016,0.027l0.011,0.027
	L2.2,10.912v0.033l-0.005,0.033l-0.005,0.027l-0.016,0.027l-0.022,0.022L2.124,11.07L2.097,11.08L2.07,11.086H2.042L2.01,11.08
	L1.982,11.07l-0.044-0.033l-0.044-0.033l-0.038-0.033l-0.038-0.027l-0.033-0.027L1.754,10.89l-0.027-0.027l-0.027-0.022
	l-0.054-0.044l-0.044-0.038l-0.044-0.038L1.52,10.688l-0.033-0.027l-0.033-0.027l-0.027-0.022L1.4,10.596l-0.027-0.016l-0.022-0.016
	L1.296,10.53z M0.49,8.199L0.479,8.248L0.468,8.297L0.463,8.336L0.452,8.379L0.447,8.417L0.441,8.455L0.425,8.526L0.408,8.592
	L0.398,8.646L0.387,8.7L0.376,8.744L0.365,8.788L0.359,8.826L0.354,8.858L0.349,8.891L0.343,8.924v0.027v0.038v0.049v0.027v0.033
	l0.005,0.027l0.005,0.033l0.005,0.038L0.37,9.234l0.011,0.049l0.011,0.049l0.011,0.06l0.016,0.065l0.016,0.071l0.011,0.033
	l0.011,0.038l0.005,0.044l0.011,0.044L0.485,9.73L0.49,9.779v0.033L0.479,9.844L0.463,9.871L0.441,9.893L0.419,9.915L0.392,9.931
	L0.365,9.942L0.332,9.948L0.3,9.942L0.272,9.931L0.245,9.915L0.223,9.893L0.207,9.871L0.191,9.844L0.18,9.811L0.174,9.779
	L0.185,9.73l0.011-0.044l0.011-0.044l0.011-0.044l0.011-0.038l0.005-0.038l0.016-0.071l0.016-0.065l0.005-0.054l0.011-0.049
	L0.294,9.24l0.011-0.038L0.31,9.163l0.011-0.038l0.005-0.033V9.071l0.005-0.027V8.995V8.946L0.327,8.918V8.886L0.321,8.853
	L0.316,8.82L0.31,8.782L0.3,8.739L0.289,8.695L0.278,8.641L0.267,8.586L0.251,8.521L0.234,8.45L0.229,8.412L0.218,8.374L0.207,8.336
	L0.196,8.292L0.185,8.243L0.174,8.194L0.18,8.161l0.011-0.033l0.016-0.027L0.229,8.08l0.022-0.022l0.022-0.005l0.033-0.011h0.033
	L0.37,8.047l0.027,0.011l0.027,0.016L0.447,8.09l0.022,0.022l0.016,0.027L0.49,8.167V8.199z M1.296,7.448L1.296,7.448L0.621,7.987
	L0.594,7.998L0.556,8.009H0.528L0.507,8.003L0.479,7.992L0.452,7.976L0.43,7.954L0.414,7.927L0.398,7.894L0.392,7.862V7.834
	l0.005-0.027L0.408,7.78l0.016-0.027l0.027-0.022l0.027-0.016l0.049-0.016l0.049-0.016l0.049-0.016L0.67,7.649l0.044-0.011
	l0.038-0.011L0.79,7.617l0.033-0.011l0.065-0.022l0.054-0.016l0.054-0.016l0.049-0.016l0.044-0.011l0.038-0.011L1.16,7.502
	l0.033-0.011L1.22,7.48L1.247,7.47L1.296,7.448z"/>
<path fill="#FFFFFF" d="M0.545,7.769h0.049h0.044h0.044h0.038l0.076,0.005L0.861,7.78l0.06,0.005l0.054,0.005l0.049,0.005
	l0.044,0.005h0.038h0.033h0.033h0.027h0.027h0.027l0.049-0.005L1.253,7.813L1.231,7.818L1.198,7.829L1.171,7.84L1.144,7.851
	L1.111,7.862L1.073,7.878L1.035,7.894L0.991,7.911L0.942,7.933L0.888,7.954l-0.06,0.027L0.757,8.009L0.719,8.025L0.681,8.041
	L0.637,8.058L0.599,8.074H0.566L0.534,8.069H0.501L0.474,8.052L0.452,8.031L0.436,8.009L0.419,7.976L0.414,7.943V7.911l0.005-0.027
	L0.43,7.856l0.016-0.027l0.022-0.022L0.49,7.791l0.027-0.016L0.545,7.769z M2.516,7.546L2.56,7.562l0.044,0.016l0.038,0.016
	L2.68,7.611L2.75,7.638l0.06,0.027l0.054,0.022l0.049,0.022l0.044,0.016l0.038,0.016l0.038,0.016l0.033,0.011L3.093,7.78
	l0.027,0.011l0.027,0.005L3.17,7.802l0.044,0.011L3.164,7.807H3.11H3.05H2.99L2.87,7.813L2.805,7.818l-0.06,0.005L2.69,7.829
	L2.636,7.834L2.587,7.84L2.554,7.845H2.538H2.522H2.505H2.494H2.484H2.478H2.473l0,0L2.445,7.834L2.418,7.824L2.391,7.813
	L2.369,7.791L2.353,7.764L2.342,7.736L2.336,7.709V7.677l0.011-0.027l0.011-0.027L2.375,7.6l0.022-0.022l0.027-0.016l0.027-0.011
	l0.033-0.005H2.516z M3.219,7.818l0.044,0.005H3.29h0.027h0.027h0.033h0.033h0.038l0.044-0.005L3.54,7.813l0.054-0.005l0.06-0.005
	L3.72,7.796l0.076-0.005h0.038h0.044h0.044h0.044l0.033,0.011l0.027,0.011l0.022,0.016l0.022,0.022l0.016,0.027l0.011,0.027
	l0.005,0.027v0.033L4.09,7.992L4.079,8.02L4.063,8.047L4.041,8.069L4.014,8.085L3.987,8.096L3.954,8.101H3.921L3.219,7.818z
	 M1.296,7.807l0.049-0.011l0.016-0.005L1.389,7.78l0.027-0.011l0.027-0.011l0.033-0.011l0.038-0.016l0.038-0.016l0.044-0.016
	l0.049-0.022l0.054-0.022l0.06-0.027L1.83,7.6l0.038-0.016l0.038-0.016L1.95,7.551l0.044-0.016h0.033L2.053,7.54L2.08,7.551
	l0.027,0.016L2.13,7.589l0.016,0.022l0.011,0.027l0.011,0.027v0.033l0.005,0.038L2.162,7.764L2.146,7.791L2.124,7.813L2.102,7.829
	L2.075,7.845L2.042,7.851H1.993H1.95H1.906H1.868L1.797,7.84L1.732,7.834l-0.06-0.005L1.618,7.824L1.569,7.818L1.53,7.813
	L1.492,7.807H1.46H1.427H1.4H1.345H1.296z"/>
<path fill="#FFFFFF" d="M2.413,7.175L2.375,7.208L2.336,7.241L2.298,7.274L2.26,7.301l0.158,0.125v0.033L2.407,7.486L2.391,7.513
	L2.375,7.535L2.353,7.557L2.326,7.573L2.298,7.584L2.266,7.589H2.233L2.206,7.579L2.179,7.562L2.157,7.546L2.14,7.524L2.124,7.497
	L2.113,7.47L2.108,7.437L2.26,7.312L2.238,7.306L2.222,7.295L2.206,7.284L2.189,7.268L2.173,7.252L2.157,7.23L2.124,7.203
	L2.097,7.181V7.148l0.011-0.033l0.016-0.027L2.14,7.067l0.022-0.022l0.027-0.016l0.027-0.011l0.033-0.005h0.038l0.027,0.016
	l0.027,0.016l0.022,0.016l0.022,0.022l0.011,0.033l0.011,0.027L2.413,7.175z M0.997,9.37l0.038-0.044l0.038-0.038l0.033-0.038
	l0.038-0.044l0.033-0.033l0.033-0.033l0.027-0.033l0.027-0.027l0.027-0.027l0.027-0.027l0.049-0.049l0.044-0.044l0.038-0.038
	l0.033-0.038l0.033-0.033l0.027-0.027l0.027-0.027L1.59,8.744l0.022-0.027l0.033-0.049L1.618,8.711L1.59,8.766L1.563,8.82
	L1.525,8.869L1.47,8.995L1.416,9.12L1.389,9.18L1.367,9.24L1.345,9.294L1.323,9.349L1.307,9.398L1.291,9.441L1.285,9.457L1.28,9.474
	L1.274,9.49L1.269,9.501l0.98,0.158h0.06l0.065-0.005L2.44,9.648l0.071-0.011l0.071-0.011l0.076-0.011l0.147-0.022l0.071-0.011
	l0.071-0.011l0.065-0.011l0.06-0.011l0.054-0.011l0.022-0.005L3.17,9.528l0.022-0.005l0.016-0.005l0.016-0.005h0.016L2.876,8.646
	L2.848,8.608L2.81,8.553L2.767,8.499L2.723,8.444L2.625,8.336L2.576,8.281L2.527,8.227L2.478,8.178L2.434,8.129L2.396,8.09
	L2.358,8.052L2.342,8.036L2.326,8.02L2.309,8.003L2.293,7.987L2.282,7.976L2.271,7.965L2.26,7.96V7.954L1.634,8.657l0.027-0.049
	l0.016-0.027l0.016-0.027L1.71,8.521l0.016-0.038l0.016-0.044L1.759,8.39l0.022-0.049l0.016-0.06l0.027-0.065l0.016-0.033
	l0.016-0.038l0.016-0.038L1.89,8.069l0.016-0.044l0.022-0.044l0.016-0.049l0.022-0.049l0.022-0.049L2.01,7.78l0.022-0.027
	l0.022-0.022L2.08,7.715l0.027-0.011l0.027-0.005h0.027l0.027,0.011l0.027,0.016l0.022,0.022l0.016,0.022l0.022-0.022l0.022-0.022
	l0.027-0.016l0.027-0.005H2.38l0.027,0.005L2.434,7.72l0.027,0.016l0.022,0.022l0.022,0.027L2.527,7.84l0.022,0.049l0.016,0.049
	l0.016,0.049l0.016,0.044l0.016,0.044l0.016,0.038L2.647,8.15l0.016,0.038L2.68,8.221l0.027,0.06l0.022,0.06L2.745,8.39l0.016,0.044
	l0.016,0.044l0.016,0.038L2.81,8.548l0.016,0.033l0.016,0.027L2.87,8.657l0.033,0.049l0.016,0.027L2.941,8.76l0.022,0.027
	L2.99,8.815l0.027,0.033L3.05,8.886l0.038,0.038l0.044,0.044l0.049,0.049l0.027,0.027l0.027,0.027l0.027,0.033L3.29,9.136
	l0.027,0.033l0.033,0.038l0.033,0.038l0.033,0.038l0.038,0.044L3.491,9.37l0.016,0.027l0.011,0.027v0.027l0.016,0.027L3.524,9.507
	L3.507,9.534L3.486,9.556L3.458,9.577L3.437,9.588L3.409,9.599l0.005,0.016L3.42,9.632v0.016v0.016L3.415,9.697L3.404,9.724
	L3.388,9.752L3.377,9.779L3.355,9.795L3.328,9.811L3.3,9.822H3.268l-0.06-0.011l-0.06-0.011L3.093,9.79L3.039,9.779L2.99,9.773
	L2.941,9.768L2.892,9.757L2.848,9.752L2.805,9.746L2.767,9.741L2.729,9.735L2.69,9.73L2.625,9.719l-0.06-0.011L2.511,9.697
	L2.462,9.686L2.418,9.681L2.38,9.675L2.347,9.67L2.315,9.664H2.249H2.184L2.151,9.67L2.113,9.675L2.075,9.681L2.031,9.686
	L1.982,9.692L1.928,9.703l-0.06,0.011L1.803,9.724L1.77,9.73L1.732,9.735L1.694,9.741L1.65,9.746L1.618,9.752L1.569,9.757
	L1.52,9.768L1.47,9.779L1.416,9.79L1.362,9.801l-0.06,0.011l-0.06,0.011L1.209,9.806L1.182,9.795L1.155,9.779L1.133,9.757
	L1.116,9.735L1.1,9.708L1.089,9.686V9.654V9.626l0.005-0.022L1.073,9.599L1.051,9.588L1.024,9.572L1.002,9.55L0.986,9.523
	L0.98,9.485L0.975,9.457V9.43L0.98,9.403L0.997,9.37z"/>
<polygon fill="#FFFFFF" points="0.566,8.123 0.566,8.129 0.566,8.129 0.566,8.139 0.566,8.145 0.572,8.156 0.572,8.172 0.572,8.189 
	0.572,8.205 0.577,8.248 0.583,8.297 0.588,8.346 0.594,8.401 0.605,8.515 0.615,8.57 0.626,8.63 0.637,8.679 0.643,8.728 
	0.659,8.771 0.664,8.788 0.67,8.809 1.062,9.376 1.073,9.403 1.073,9.436 1.067,9.468 1.062,9.496 1.046,9.523 1.024,9.545 
	1.002,9.561 0.975,9.577 0.942,9.588 0.915,9.588 0.882,9.588 0.855,9.577 0.828,9.561 0.806,9.545 0.784,9.517 0.768,9.49 
	0.67,8.809 0.654,8.766 0.626,8.722 0.605,8.679 0.572,8.63 0.507,8.537 0.474,8.488 0.441,8.444 0.408,8.406 0.376,8.363 
	0.349,8.33 0.327,8.297 0.316,8.287 0.305,8.276 0.294,8.265 0.289,8.254 0.283,8.248 0.278,8.243 0.278,8.243 0.278,8.238 
	0.267,8.21 0.267,8.178 0.267,8.15 0.278,8.118 0.294,8.096 0.31,8.069 0.338,8.052 0.365,8.036 0.392,8.025 0.425,8.025 
	0.457,8.031 0.485,8.036 0.512,8.052 0.534,8.074 0.55,8.096 "/>
<path fill="#FFFFFF" d="M4.232,8.254L4.21,8.287L4.188,8.319l-0.044,0.06L4.107,8.434L4.068,8.483L4.036,8.526L4.003,8.564
	L3.976,8.597L3.954,8.63L3.932,8.662L3.91,8.69L3.894,8.711L3.878,8.733L3.867,8.755L3.856,8.771L3.84,8.809L3.823,8.848
	L3.818,8.869L3.812,8.891v0.033L3.807,8.951L3.802,8.984L3.796,9.016L3.791,9.054L3.785,9.098l0,0.054L3.78,9.207L3.774,9.261
	L3.763,9.327L3.752,9.403L3.747,9.441L3.742,9.485L3.725,9.512L3.703,9.534L3.682,9.556L3.654,9.572L3.627,9.583H3.595H3.562
	L3.535,9.572L3.507,9.556L3.486,9.534L3.464,9.512L3.448,9.485L3.437,9.457L3.431,9.43V9.398l0.011-0.033l0.022-0.033L3.486,9.3
	l0.044-0.06l0.038-0.054l0.038-0.049l0.033-0.044l0.033-0.038l0.027-0.038L3.72,8.984l0.022-0.027l0.016-0.027l0.016-0.022
	l0.016-0.022l0.016-0.022l0.011-0.016l0.016-0.038l0.016-0.038l0.005-0.022l0.005-0.022L3.867,8.7l0.005-0.027l0.005-0.033
	l0.005-0.033L3.889,8.57l0.005-0.044L3.9,8.477l0.005-0.054l0.005-0.06l0.011-0.065l0.011-0.076l0.005-0.038l0.005-0.044
	l0.016-0.027L3.976,8.09l0.022-0.022l0.027-0.016l0.027-0.011l0.033-0.005h0.033L4.15,8.047l0.027,0.016l0.022,0.022l0.022,0.022
	l0.016,0.027l0.011,0.027l0.005,0.033v0.033L4.232,8.254z M3.785,9.621L3.796,9.67l0.016,0.054L3.84,9.828l0.202-0.071l0.027,0.016
	L4.09,9.795l0.016,0.027L4.117,9.85l0.005,0.027v0.038L4.117,9.948L4.107,9.975l-0.022,0.027l-0.022,0.022L4.036,10.04l-0.027,0.011
	l-0.027,0.005H3.949l-0.027-0.005L3.894,10.04L3.84,9.833L3.829,9.839L3.818,9.844L3.802,9.85L3.791,9.855L3.78,9.861H3.769
	L3.758,9.855L3.747,9.861H3.731L3.714,9.866L3.693,9.871L3.665,9.882L3.633,9.893L3.605,9.877L3.584,9.855L3.567,9.833L3.562,9.806
	L3.556,9.779V9.746l0.005-0.027l0.011-0.027l0.016-0.027l0.022-0.022l0.027-0.016l0.027-0.011L3.698,9.61h0.033l0.033,0.005
	L3.785,9.621z"/>
<path fill="#FFFFFF" d="M3.464,9.926L3.464,9.926L3.464,9.926L3.453,9.931L3.442,9.942L3.431,9.948L3.42,9.953L3.404,9.964
	L3.388,9.975L3.349,9.997l-0.038,0.027l-0.044,0.033l-0.054,0.033l-0.098,0.065l-0.049,0.038l-0.044,0.033l-0.044,0.033
	l-0.038,0.033l-0.033,0.027l-0.016,0.016l-0.011,0.011l0.027-0.033l0.016-0.022l0.016-0.022l0.016-0.022l0.016-0.027l0.016-0.033
	l0.016-0.033l0.016-0.038l0.022-0.044l0.022-0.044l0.027-0.054L3.121,9.92l0.033-0.06L3.17,9.828l0.016-0.033l0.022-0.038
	L3.23,9.719l0.022-0.022l0.027-0.016L3.306,9.67l0.027-0.005H3.36L3.388,9.67l0.027,0.011l0.027,0.016l0.022,0.022L3.48,9.746
	l0.011,0.027l0.005,0.027v0.027L3.491,9.855L3.486,9.904L3.464,9.926z M0.871,9.904L0.85,9.899L0.828,9.893L0.795,9.877L0.773,9.866
	L0.752,9.855L0.73,9.85L0.713,9.844L0.692,9.839H0.67l-0.054,0.207l-0.027,0.011l-0.033,0.005H0.528l-0.033-0.005l-0.027-0.011
	l-0.022-0.022l-0.022-0.022L0.408,9.975L0.392,9.948L0.387,9.915V9.888l0.005-0.027l0.011-0.027l0.016-0.027l0.022-0.022
	l0.027-0.016L0.67,9.839V9.828V9.817V9.806l0.005-0.011l0.011-0.011V9.779l0.005-0.011V9.757l0.005-0.016l0.005-0.016l0.005-0.022
	l0.005-0.027l0.005-0.033l0.027-0.011l0.033-0.005h0.033l0.033,0.005l0.027,0.011l0.027,0.016L0.92,9.681l0.016,0.027l0.011,0.027
	l0.005,0.033v0.027L0.948,9.822L0.926,9.839L0.91,9.861L0.888,9.882L0.871,9.904z M1.982,10.972l-0.022-0.038l-0.016-0.038
	l-0.022-0.038l-0.016-0.033l-0.033-0.06L1.846,10.71l-0.027-0.049l-0.022-0.044l-0.022-0.038l-0.022-0.038l-0.016-0.033
	l-0.016-0.033l-0.016-0.027l-0.016-0.027L1.672,10.4l-0.016-0.016l-0.022-0.038l0.033,0.033l0.016,0.016l0.022,0.016l0.022,0.016
	l0.027,0.016l0.027,0.016l0.033,0.022l0.033,0.022l0.038,0.027l0.044,0.027l0.049,0.033l0.054,0.033l0.06,0.038l0.033,0.022
	l0.033,0.022l0.033,0.022l0.038,0.027l0.016,0.027l0.005,0.027l0.005,0.027v0.033l-0.005,0.033l-0.011,0.027l-0.016,0.027
	L2.2,10.977l-0.022,0.022L2.151,11.01l-0.027,0.005H2.091L2.064,11.01l-0.033-0.005l-0.027-0.016L1.982,10.972z M1.634,10.345
	l-0.033-0.033l-0.016-0.016L1.563,10.28l-0.022-0.016l-0.027-0.016l-0.027-0.022l-0.033-0.016l-0.033-0.022L1.383,10.16L1.34,10.133
	L1.291,10.1l-0.054-0.038l-0.06-0.038l-0.033-0.022L1.111,9.98L1.078,9.959L1.046,9.931L1.029,9.904L1.018,9.877L1.013,9.85V9.817
	L1.018,9.79l0.011-0.027l0.016-0.027l0.022-0.022l0.027-0.016l0.027-0.016l0.027-0.005h0.033l0.027,0.005l0.033,0.011l0.027,0.016
	L1.291,9.73l0.022,0.038l0.022,0.038l0.022,0.033l0.016,0.033l0.033,0.06l0.027,0.054l0.027,0.049l0.022,0.044l0.022,0.044
	l0.022,0.038l0.016,0.033l0.016,0.027l0.016,0.027l0.016,0.022l0.016,0.022l0.016,0.022L1.634,10.345z M2.887,10.345L2.887,10.345
	l-0.349,0.626l-0.022,0.022l-0.033,0.011l-0.027,0.011l-0.027,0.005H2.396l-0.027-0.005l-0.027-0.011l-0.027-0.016l-0.022-0.022
	l-0.016-0.027l-0.011-0.027L2.26,10.879v-0.038l0.005-0.027l0.011-0.027l0.016-0.027l0.033-0.027l0.033-0.022l0.033-0.022
	l0.033-0.022l0.054-0.038l0.054-0.038l0.049-0.033l0.044-0.027l0.038-0.027l0.038-0.022l0.033-0.022l0.027-0.016l0.027-0.016
	l0.022-0.016l0.022-0.016l0.016-0.016L2.887,10.345z"/>
<polygon fill="#FFFFFF" points="2.26,7.426 2.282,7.426 2.309,7.431 2.331,7.437 2.353,7.442 2.375,7.453 2.391,7.464 2.413,7.48 
	2.429,7.497 2.445,7.513 2.456,7.53 2.467,7.551 2.478,7.568 2.484,7.589 2.494,7.617 2.494,7.638 2.5,7.66 2.494,7.687 
	2.494,7.709 2.484,7.731 2.478,7.758 2.467,7.775 2.456,7.796 2.445,7.813 2.429,7.829 2.413,7.845 2.391,7.862 2.375,7.873 
	2.353,7.884 2.331,7.889 2.309,7.894 2.282,7.9 2.26,7.9 2.233,7.9 2.211,7.894 2.189,7.889 2.168,7.884 2.146,7.873 2.124,7.862 
	2.108,7.845 2.091,7.829 2.075,7.813 2.059,7.796 2.048,7.775 2.042,7.758 2.031,7.731 2.026,7.709 2.021,7.687 2.021,7.66 
	2.021,7.638 2.026,7.617 2.031,7.589 2.042,7.568 2.048,7.551 2.059,7.53 2.075,7.513 2.091,7.497 2.108,7.48 2.124,7.464 
	2.146,7.453 2.168,7.442 2.189,7.437 2.211,7.431 2.233,7.426 "/>
<polygon fill="#FFFFFF" points="2.26,7.426 2.26,7.393 2.287,7.393 2.315,7.399 2.336,7.404 2.364,7.415 2.353,7.442 2.342,7.475 
	2.32,7.464 2.298,7.464 2.282,7.459 2.26,7.459 "/>
<polygon fill="#FFFFFF" points="2.353,7.442 2.364,7.415 2.385,7.426 2.407,7.437 2.429,7.453 2.451,7.47 2.429,7.497 2.407,7.519 
	2.391,7.502 2.375,7.491 2.342,7.475 "/>
<polygon fill="#FFFFFF" points="2.429,7.497 2.451,7.47 2.467,7.491 2.484,7.513 2.5,7.535 2.511,7.557 2.478,7.568 2.451,7.584 
	2.429,7.546 2.418,7.53 2.407,7.519 "/>
<polygon fill="#FFFFFF" points="2.478,7.568 2.511,7.557 2.516,7.584 2.522,7.606 2.527,7.633 2.533,7.66 2.5,7.66 2.467,7.66 
	2.467,7.638 2.462,7.622 2.451,7.584 "/>
<polygon fill="#FFFFFF" points="2.5,7.66 2.533,7.66 2.527,7.687 2.522,7.715 2.516,7.742 2.511,7.769 2.478,7.758 2.451,7.742 
	2.456,7.726 2.462,7.704 2.467,7.682 2.467,7.66 "/>
<polygon fill="#FFFFFF" points="2.478,7.758 2.511,7.769 2.5,7.791 2.484,7.813 2.467,7.834 2.451,7.856 2.429,7.829 2.407,7.807 
	2.418,7.796 2.429,7.78 2.451,7.742 "/>
<polygon fill="#FFFFFF" points="2.429,7.829 2.451,7.856 2.429,7.873 2.407,7.889 2.385,7.9 2.364,7.911 2.353,7.884 2.342,7.856 
	2.375,7.834 2.391,7.824 2.407,7.807 "/>
<polygon fill="#FFFFFF" points="2.353,7.884 2.364,7.911 2.342,7.922 2.315,7.927 2.287,7.933 2.26,7.933 2.26,7.9 2.26,7.873 
	2.282,7.867 2.298,7.867 2.32,7.862 2.342,7.856 "/>
<polygon fill="#FFFFFF" points="2.26,7.9 2.26,7.933 2.233,7.933 2.206,7.927 2.179,7.922 2.151,7.911 2.168,7.884 2.179,7.856 
	2.217,7.867 2.238,7.867 2.26,7.873 "/>
<polygon fill="#FFFFFF" points="2.168,7.884 2.151,7.911 2.13,7.9 2.108,7.889 2.086,7.873 2.07,7.856 2.091,7.829 2.113,7.807 
	2.13,7.824 2.146,7.834 2.179,7.856 "/>
<polygon fill="#FFFFFF" points="2.091,7.829 2.07,7.856 2.048,7.834 2.037,7.813 2.021,7.791 2.01,7.769 2.042,7.758 2.07,7.742 
	2.086,7.78 2.097,7.796 2.113,7.807 "/>
<polygon fill="#FFFFFF" points="2.042,7.758 2.01,7.769 1.999,7.742 1.993,7.715 1.993,7.687 1.988,7.66 2.021,7.66 2.053,7.66 
	2.053,7.682 2.059,7.704 2.064,7.726 2.07,7.742 "/>
<polygon fill="#FFFFFF" points="2.021,7.66 1.988,7.66 1.993,7.633 1.993,7.606 1.999,7.584 2.01,7.557 2.042,7.568 2.07,7.584 
	2.064,7.6 2.059,7.622 2.053,7.638 2.053,7.66 "/>
<polygon fill="#FFFFFF" points="2.042,7.568 2.01,7.557 2.021,7.535 2.037,7.513 2.048,7.491 2.07,7.47 2.091,7.497 2.113,7.519 
	2.097,7.53 2.086,7.546 2.075,7.562 2.07,7.584 "/>
<polygon fill="#FFFFFF" points="2.091,7.497 2.07,7.47 2.086,7.453 2.108,7.437 2.13,7.426 2.151,7.415 2.168,7.442 2.179,7.475 
	2.162,7.48 2.14,7.491 2.13,7.502 2.113,7.519 "/>
<polygon fill="#FFFFFF" points="2.168,7.442 2.151,7.415 2.179,7.404 2.206,7.399 2.233,7.393 2.26,7.393 2.26,7.426 2.26,7.459 
	2.238,7.459 2.217,7.464 2.195,7.464 2.179,7.475 "/>
<polygon fill="#FFFFFF" points="1.002,9.414 1.029,9.414 1.051,9.419 1.073,9.425 1.1,9.43 1.116,9.441 1.138,9.452 1.155,9.468 
	1.171,9.485 1.187,9.501 1.204,9.517 1.215,9.539 1.225,9.556 1.231,9.583 1.236,9.605 1.242,9.626 1.242,9.654 1.242,9.675 
	1.236,9.697 1.231,9.724 1.225,9.746 1.215,9.762 1.204,9.784 1.187,9.806 1.171,9.822 1.155,9.839 1.138,9.85 1.116,9.861 
	1.1,9.871 1.073,9.877 1.051,9.888 1.029,9.888 1.002,9.888 0.98,9.888 0.959,9.888 0.931,9.877 0.91,9.871 0.893,9.861 0.871,9.85 
	0.855,9.839 0.833,9.822 0.822,9.806 0.806,9.784 0.795,9.762 0.784,9.746 0.779,9.724 0.773,9.697 0.768,9.675 0.768,9.654 
	0.768,9.626 0.773,9.605 0.779,9.583 0.784,9.556 0.795,9.539 0.806,9.517 0.822,9.501 0.833,9.485 0.855,9.468 0.871,9.452 
	0.893,9.441 0.91,9.43 0.931,9.425 0.959,9.419 0.98,9.414 "/>
<polygon fill="#FFFFFF" points="1.002,9.414 1.002,9.381 1.029,9.387 1.057,9.387 1.084,9.392 1.111,9.403 1.1,9.43 1.084,9.463 
	1.067,9.457 1.046,9.452 1.024,9.447 1.002,9.447 "/>
<polygon fill="#FFFFFF" points="1.1,9.43 1.111,9.403 1.133,9.414 1.155,9.43 1.176,9.441 1.193,9.463 1.171,9.485 1.149,9.507 
	1.133,9.49 1.122,9.479 1.084,9.463 "/>
<polygon fill="#FFFFFF" points="1.171,9.485 1.193,9.463 1.215,9.479 1.231,9.501 1.242,9.523 1.253,9.545 1.225,9.556 1.193,9.572 
	1.176,9.539 1.166,9.523 1.149,9.507 "/>
<polygon fill="#FFFFFF" points="1.225,9.556 1.253,9.545 1.264,9.572 1.269,9.599 1.274,9.621 1.274,9.654 1.242,9.654 1.209,9.654 
	1.209,9.632 1.209,9.61 1.193,9.572 "/>
<polygon fill="#FFFFFF" points="1.242,9.654 1.274,9.654 1.274,9.681 1.269,9.708 1.264,9.73 1.253,9.757 1.225,9.746 1.193,9.73 
	1.204,9.713 1.209,9.692 1.209,9.67 1.209,9.654 "/>
<polygon fill="#FFFFFF" points="1.225,9.746 1.253,9.757 1.242,9.779 1.231,9.801 1.215,9.822 1.193,9.844 1.171,9.822 1.149,9.795 
	1.166,9.784 1.176,9.768 1.193,9.73 "/>
<polygon fill="#FFFFFF" points="1.171,9.822 1.193,9.844 1.176,9.861 1.155,9.877 1.133,9.888 1.111,9.904 1.1,9.871 1.084,9.844 
	1.122,9.822 1.133,9.811 1.149,9.795 "/>
<polygon fill="#FFFFFF" points="1.1,9.871 1.111,9.904 1.084,9.91 1.057,9.915 1.029,9.92 1.002,9.92 1.002,9.888 1.002,9.861 
	1.024,9.855 1.046,9.855 1.067,9.85 1.084,9.844 "/>
<polygon fill="#FFFFFF" points="1.002,9.888 1.002,9.92 0.975,9.92 0.948,9.915 0.926,9.91 0.899,9.904 0.91,9.871 0.926,9.844 
	0.964,9.855 0.98,9.855 1.002,9.861 "/>
<polygon fill="#FFFFFF" points="0.91,9.871 0.899,9.904 0.877,9.888 0.85,9.877 0.833,9.861 0.811,9.844 0.833,9.822 0.861,9.795 
	0.871,9.811 0.888,9.822 0.926,9.844 "/>
<polygon fill="#FFFFFF" points="0.833,9.822 0.811,9.844 0.795,9.822 0.779,9.801 0.768,9.779 0.757,9.757 0.784,9.746 0.817,9.73 
	0.833,9.768 0.844,9.784 0.861,9.795 "/>
<polygon fill="#FFFFFF" points="0.784,9.746 0.757,9.757 0.746,9.73 0.741,9.708 0.735,9.681 0.735,9.654 0.768,9.654 0.801,9.654 
	0.801,9.67 0.801,9.692 0.806,9.713 0.817,9.73 "/>
<polygon fill="#FFFFFF" points="0.768,9.654 0.735,9.654 0.735,9.621 0.741,9.599 0.746,9.572 0.757,9.545 0.784,9.556 0.817,9.572 
	0.806,9.588 0.801,9.61 0.801,9.632 0.801,9.654 "/>
<polygon fill="#FFFFFF" points="0.784,9.556 0.757,9.545 0.768,9.523 0.779,9.501 0.795,9.479 0.811,9.463 0.833,9.485 0.861,9.507 
	0.844,9.523 0.833,9.534 0.822,9.556 0.817,9.572 "/>
<polygon fill="#FFFFFF" points="0.833,9.485 0.811,9.463 0.833,9.441 0.855,9.43 0.877,9.414 0.899,9.403 0.91,9.43 0.926,9.463 
	0.904,9.468 0.888,9.479 0.871,9.49 0.861,9.507 "/>
<polygon fill="#FFFFFF" points="0.91,9.43 0.899,9.403 0.926,9.392 0.948,9.387 0.975,9.387 1.002,9.381 1.002,9.414 1.002,9.447 
	0.98,9.447 0.964,9.452 0.942,9.457 0.926,9.463 "/>
<polygon fill="#FFFFFF" points="3.502,9.408 3.529,9.408 3.551,9.414 3.573,9.419 3.595,9.425 3.616,9.436 3.638,9.447 3.654,9.463 
	3.671,9.479 3.687,9.496 3.703,9.512 3.714,9.534 3.725,9.55 3.731,9.572 3.736,9.599 3.742,9.621 3.742,9.643 3.742,9.67 
	3.736,9.692 3.731,9.719 3.725,9.741 3.714,9.757 3.703,9.779 3.687,9.795 3.671,9.811 3.654,9.828 3.638,9.844 3.616,9.855 
	3.595,9.866 3.573,9.871 3.551,9.877 3.529,9.882 3.502,9.882 3.48,9.882 3.453,9.877 3.431,9.871 3.409,9.866 3.388,9.855 
	3.371,9.844 3.349,9.828 3.333,9.811 3.317,9.795 3.306,9.779 3.295,9.757 3.284,9.741 3.273,9.719 3.273,9.692 3.268,9.67 
	3.268,9.643 3.268,9.621 3.273,9.599 3.273,9.572 3.284,9.55 3.295,9.534 3.306,9.512 3.317,9.496 3.333,9.479 3.349,9.463 
	3.371,9.447 3.388,9.436 3.409,9.425 3.431,9.419 3.453,9.414 3.48,9.408 "/>
<polygon fill="#FFFFFF" points="3.502,9.408 3.502,9.376 3.529,9.376 3.556,9.381 3.584,9.387 3.605,9.398 3.595,9.425 3.584,9.457 
	3.567,9.447 3.546,9.447 3.524,9.441 3.502,9.441 "/>
<polygon fill="#FFFFFF" points="3.595,9.425 3.605,9.398 3.633,9.408 3.654,9.419 3.676,9.436 3.693,9.452 3.671,9.479 3.649,9.501 
	3.633,9.485 3.616,9.474 3.584,9.457 "/>
<polygon fill="#FFFFFF" points="3.671,9.479 3.693,9.452 3.714,9.474 3.725,9.496 3.742,9.517 3.752,9.539 3.725,9.55 3.693,9.566 
	3.676,9.528 3.665,9.512 3.649,9.501 "/>
<polygon fill="#FFFFFF" points="3.725,9.55 3.752,9.539 3.763,9.566 3.769,9.588 3.774,9.615 3.774,9.643 3.742,9.643 3.709,9.643 
	3.709,9.621 3.709,9.605 3.693,9.566 "/>
<polygon fill="#FFFFFF" points="3.742,9.643 3.774,9.643 3.774,9.67 3.769,9.697 3.763,9.724 3.752,9.752 3.725,9.741 3.693,9.724 
	3.698,9.708 3.709,9.686 3.709,9.664 3.709,9.643 "/>
<polygon fill="#FFFFFF" points="3.725,9.741 3.752,9.752 3.742,9.773 3.725,9.795 3.714,9.817 3.693,9.839 3.671,9.811 3.649,9.79 
	3.665,9.779 3.676,9.762 3.693,9.724 "/>
<polygon fill="#FFFFFF" points="3.671,9.811 3.693,9.839 3.676,9.855 3.654,9.871 3.633,9.882 3.605,9.893 3.595,9.866 3.584,9.839 
	3.616,9.817 3.633,9.806 3.649,9.79 "/>
<polygon fill="#FFFFFF" points="3.595,9.866 3.605,9.893 3.584,9.904 3.556,9.91 3.529,9.915 3.502,9.915 3.502,9.882 3.502,9.855 
	3.524,9.85 3.546,9.85 3.567,9.844 3.584,9.839 "/>
<polygon fill="#FFFFFF" points="3.502,9.882 3.502,9.915 3.475,9.915 3.448,9.91 3.42,9.904 3.398,9.893 3.409,9.866 3.42,9.839 
	3.458,9.85 3.48,9.85 3.502,9.855 "/>
<polygon fill="#FFFFFF" points="3.409,9.866 3.398,9.893 3.371,9.882 3.349,9.871 3.333,9.855 3.311,9.839 3.333,9.811 3.355,9.79 
	3.371,9.806 3.388,9.817 3.42,9.839 "/>
<polygon fill="#FFFFFF" points="3.333,9.811 3.311,9.839 3.295,9.817 3.279,9.795 3.268,9.773 3.257,9.752 3.284,9.741 3.311,9.724 
	3.333,9.762 3.344,9.779 3.355,9.79 "/>
<polygon fill="#FFFFFF" points="3.284,9.741 3.257,9.752 3.246,9.724 3.241,9.697 3.235,9.67 3.235,9.643 3.268,9.643 3.3,9.643 
	3.3,9.664 3.3,9.686 3.306,9.708 3.311,9.724 "/>
<polygon fill="#FFFFFF" points="3.268,9.643 3.235,9.643 3.235,9.615 3.241,9.588 3.246,9.566 3.257,9.539 3.284,9.55 3.311,9.566 
	3.306,9.583 3.3,9.605 3.3,9.621 3.3,9.643 "/>
<polygon fill="#FFFFFF" points="3.284,9.55 3.257,9.539 3.268,9.517 3.279,9.496 3.295,9.474 3.311,9.452 3.333,9.479 3.355,9.501 
	3.344,9.512 3.333,9.528 3.322,9.545 3.311,9.566 "/>
<polygon fill="#FFFFFF" points="3.333,9.479 3.311,9.452 3.333,9.436 3.349,9.419 3.377,9.408 3.398,9.398 3.409,9.425 3.42,9.457 
	3.404,9.463 3.388,9.474 3.371,9.485 3.355,9.501 "/>
<polygon fill="#FFFFFF" points="3.409,9.425 3.398,9.398 3.42,9.387 3.448,9.381 3.475,9.376 3.502,9.376 3.502,9.408 3.502,9.441 
	3.48,9.441 3.458,9.447 3.442,9.447 3.42,9.457 "/>
<polygon fill="#FFFFFF" points="4.177,7.731 4.199,7.736 4.226,7.736 4.248,7.742 4.27,7.753 4.292,7.764 4.308,7.775 4.33,7.785 
	4.346,7.802 4.362,7.818 4.373,7.84 4.384,7.856 4.395,7.878 4.406,7.9 4.411,7.922 4.411,7.949 4.417,7.971 4.411,7.998 
	4.411,8.02 4.406,8.041 4.395,8.063 4.384,8.085 4.373,8.107 4.362,8.123 4.346,8.139 4.33,8.156 4.308,8.172 4.292,8.183 
	4.27,8.189 4.248,8.199 4.226,8.205 4.199,8.21 4.177,8.21 4.15,8.21 4.128,8.205 4.107,8.199 4.085,8.189 4.063,8.183 4.041,8.172 
	4.025,8.156 4.008,8.139 3.992,8.123 3.981,8.107 3.965,8.085 3.959,8.063 3.949,8.041 3.943,8.02 3.938,7.998 3.938,7.971 
	3.938,7.949 3.943,7.922 3.949,7.9 3.959,7.878 3.965,7.856 3.981,7.84 3.992,7.818 4.008,7.802 4.025,7.785 4.041,7.775 
	4.063,7.764 4.085,7.753 4.107,7.742 4.128,7.736 4.15,7.736 "/>
<polygon fill="#FFFFFF" points="4.177,7.731 4.177,7.704 4.205,7.704 4.232,7.709 4.254,7.715 4.281,7.72 4.27,7.753 4.259,7.78 
	4.237,7.775 4.215,7.769 4.199,7.769 4.177,7.764 "/>
<polygon fill="#FFFFFF" points="4.27,7.753 4.281,7.72 4.303,7.731 4.324,7.747 4.346,7.764 4.368,7.78 4.346,7.802 4.324,7.824 
	4.308,7.813 4.292,7.802 4.259,7.78 "/>
<polygon fill="#FFFFFF" points="4.346,7.802 4.368,7.78 4.384,7.796 4.401,7.818 4.417,7.84 4.428,7.867 4.395,7.878 4.368,7.889 
	4.346,7.856 4.335,7.84 4.324,7.824 "/>
<polygon fill="#FFFFFF" points="4.395,7.878 4.428,7.867 4.433,7.889 4.439,7.916 4.444,7.943 4.45,7.971 4.417,7.971 4.384,7.971 
	4.384,7.949 4.379,7.927 4.368,7.889 "/>
<polygon fill="#FFFFFF" points="4.417,7.971 4.45,7.971 4.444,7.998 4.439,8.025 4.433,8.052 4.428,8.074 4.395,8.063 4.368,8.052 
	4.373,8.031 4.379,8.014 4.384,7.992 4.384,7.971 "/>
<polygon fill="#FFFFFF" points="4.395,8.063 4.428,8.074 4.417,8.101 4.401,8.123 4.384,8.145 4.368,8.161 4.346,8.139 4.324,8.118 
	4.335,8.101 4.346,8.085 4.368,8.052 "/>
<polygon fill="#FFFFFF" points="4.346,8.139 4.368,8.161 4.346,8.178 4.324,8.194 4.303,8.21 4.281,8.221 4.27,8.189 4.259,8.161 
	4.292,8.139 4.308,8.129 4.324,8.118 "/>
<polygon fill="#FFFFFF" points="4.27,8.189 4.281,8.221 4.259,8.232 4.232,8.238 4.205,8.243 4.177,8.243 4.177,8.21 4.177,8.178 
	4.199,8.178 4.215,8.172 4.237,8.167 4.259,8.161 "/>
<polygon fill="#FFFFFF" points="4.177,8.21 4.177,8.243 4.15,8.243 4.123,8.238 4.096,8.232 4.068,8.221 4.085,8.189 4.096,8.161 
	4.134,8.172 4.156,8.178 4.177,8.178 "/>
<polygon fill="#FFFFFF" points="4.085,8.189 4.068,8.221 4.047,8.21 4.025,8.194 4.003,8.178 3.987,8.161 4.008,8.139 4.03,8.118 
	4.047,8.129 4.063,8.139 4.096,8.161 "/>
<polygon fill="#FFFFFF" points="4.008,8.139 3.987,8.161 3.965,8.145 3.954,8.123 3.938,8.101 3.927,8.074 3.959,8.063 3.987,8.052 
	4.003,8.085 4.014,8.101 4.03,8.118 "/>
<polygon fill="#FFFFFF" points="3.959,8.063 3.927,8.074 3.916,8.052 3.91,8.025 3.91,7.998 3.905,7.971 3.938,7.971 3.97,7.971 
	3.97,7.992 3.976,8.014 3.981,8.031 3.987,8.052 "/>
<polygon fill="#FFFFFF" points="3.938,7.971 3.905,7.971 3.91,7.943 3.91,7.916 3.916,7.889 3.927,7.867 3.959,7.878 3.987,7.889 
	3.981,7.911 3.976,7.927 3.97,7.949 3.97,7.971 "/>
<polygon fill="#FFFFFF" points="3.959,7.878 3.927,7.867 3.938,7.845 3.954,7.818 3.965,7.796 3.987,7.78 4.008,7.802 4.03,7.824 
	4.014,7.84 4.003,7.856 3.998,7.873 3.987,7.889 "/>
<polygon fill="#FFFFFF" points="4.008,7.802 3.987,7.78 4.003,7.764 4.025,7.747 4.047,7.731 4.068,7.72 4.085,7.753 4.096,7.78 
	4.079,7.791 4.057,7.802 4.047,7.813 4.03,7.824 "/>
<polygon fill="#FFFFFF" points="4.085,7.753 4.068,7.72 4.096,7.715 4.123,7.709 4.15,7.704 4.177,7.704 4.177,7.731 4.177,7.764 
	4.156,7.769 4.134,7.769 4.112,7.775 4.096,7.78 "/>
<polygon fill="#FFFFFF" points="0.332,7.726 0.359,7.726 0.381,7.731 0.408,7.731 0.43,7.742 0.447,7.753 0.468,7.764 0.485,7.78 
	0.501,7.791 0.517,7.813 0.534,7.829 0.545,7.845 0.556,7.867 0.561,7.889 0.566,7.911 0.572,7.938 0.572,7.96 0.572,7.987 
	0.566,8.009 0.561,8.031 0.556,8.052 0.545,8.074 0.534,8.096 0.517,8.112 0.501,8.129 0.485,8.145 0.468,8.161 0.447,8.172 
	0.43,8.183 0.408,8.189 0.381,8.194 0.359,8.199 0.332,8.199 0.31,8.199 0.289,8.194 0.267,8.189 0.24,8.183 0.223,8.172 
	0.202,8.161 0.185,8.145 0.169,8.129 0.152,8.112 0.136,8.096 0.125,8.074 0.114,8.052 0.109,8.031 0.103,8.009 0.098,7.987 
	0.098,7.96 0.098,7.938 0.103,7.911 0.109,7.889 0.114,7.867 0.125,7.845 0.136,7.829 0.152,7.813 0.169,7.791 0.185,7.78 
	0.202,7.764 0.223,7.753 0.24,7.742 0.267,7.731 0.289,7.731 0.31,7.726 "/>
<polygon fill="#FFFFFF" points="0.332,7.726 0.332,7.693 0.359,7.693 0.392,7.698 0.414,7.704 0.441,7.715 0.43,7.742 0.414,7.769 
	0.398,7.764 0.376,7.758 0.354,7.758 0.332,7.758 "/>
<polygon fill="#FFFFFF" points="0.43,7.742 0.441,7.715 0.463,7.726 0.485,7.736 0.507,7.753 0.528,7.769 0.501,7.791 0.479,7.813 
	0.468,7.802 0.452,7.791 0.414,7.769 "/>
<polygon fill="#FFFFFF" points="0.501,7.791 0.528,7.769 0.545,7.791 0.561,7.807 0.572,7.829 0.583,7.856 0.556,7.867 0.528,7.878 
	0.507,7.845 0.496,7.829 0.479,7.813 "/>
<polygon fill="#FFFFFF" points="0.556,7.867 0.583,7.856 0.594,7.878 0.599,7.905 0.605,7.933 0.605,7.96 0.572,7.96 0.545,7.96 
	0.539,7.938 0.539,7.922 0.528,7.878 "/>
<polygon fill="#FFFFFF" points="0.572,7.96 0.605,7.96 0.605,7.987 0.599,8.014 0.594,8.041 0.583,8.063 0.556,8.052 0.528,8.041 
	0.534,8.025 0.539,8.003 0.539,7.982 0.545,7.96 "/>
<polygon fill="#FFFFFF" points="0.556,8.052 0.583,8.063 0.572,8.09 0.561,8.112 0.545,8.134 0.528,8.15 0.501,8.129 0.479,8.107 
	0.496,8.09 0.507,8.08 0.528,8.041 "/>
<polygon fill="#FFFFFF" points="0.501,8.129 0.528,8.15 0.507,8.172 0.485,8.189 0.463,8.199 0.441,8.21 0.43,8.183 0.414,8.15 
	0.452,8.134 0.468,8.123 0.479,8.107 "/>
<polygon fill="#FFFFFF" points="0.43,8.183 0.441,8.21 0.414,8.221 0.392,8.227 0.359,8.232 0.332,8.232 0.332,8.199 0.332,8.167 
	0.354,8.167 0.376,8.167 0.398,8.156 0.414,8.15 "/>
<polygon fill="#FFFFFF" points="0.332,8.199 0.332,8.232 0.305,8.232 0.283,8.227 0.256,8.221 0.229,8.21 0.24,8.183 0.256,8.15 
	0.294,8.167 0.31,8.167 0.332,8.167 "/>
<polygon fill="#FFFFFF" points="0.24,8.183 0.229,8.21 0.207,8.199 0.185,8.189 0.163,8.172 0.142,8.15 0.169,8.129 0.191,8.107 
	0.202,8.123 0.218,8.134 0.256,8.15 "/>
<polygon fill="#FFFFFF" points="0.169,8.129 0.142,8.15 0.125,8.134 0.109,8.112 0.098,8.09 0.087,8.063 0.114,8.052 0.147,8.041 
	0.163,8.08 0.174,8.09 0.191,8.107 "/>
<polygon fill="#FFFFFF" points="0.114,8.052 0.087,8.063 0.076,8.041 0.071,8.014 0.065,7.987 0.065,7.96 0.098,7.96 0.131,7.96 
	0.131,7.982 0.136,8.003 0.136,8.025 0.147,8.041 "/>
<polygon fill="#FFFFFF" points="0.098,7.96 0.065,7.96 0.065,7.933 0.071,7.905 0.076,7.878 0.087,7.856 0.114,7.867 0.147,7.878 
	0.136,7.9 0.136,7.922 0.131,7.938 0.131,7.96 "/>
<polygon fill="#FFFFFF" points="0.114,7.867 0.087,7.856 0.098,7.834 0.109,7.813 0.125,7.791 0.142,7.769 0.169,7.791 0.191,7.813 
	0.174,7.829 0.163,7.845 0.152,7.862 0.147,7.878 "/>
<polygon fill="#FFFFFF" points="0.169,7.791 0.142,7.769 0.163,7.753 0.185,7.736 0.207,7.726 0.229,7.715 0.24,7.742 0.256,7.769 
	0.234,7.78 0.218,7.791 0.202,7.802 0.191,7.813 "/>
<polygon fill="#FFFFFF" points="0.24,7.742 0.229,7.715 0.256,7.704 0.283,7.698 0.305,7.693 0.332,7.693 0.332,7.726 0.332,7.758 
	0.31,7.758 0.294,7.758 0.272,7.764 0.256,7.769 "/>
<polygon fill="#FFFFFF" points="0.332,9.779 0.359,9.779 0.381,9.784 0.408,9.79 0.43,9.795 0.447,9.806 0.468,9.817 0.485,9.833 
	0.501,9.85 0.517,9.866 0.534,9.882 0.545,9.904 0.556,9.92 0.561,9.948 0.566,9.969 0.572,9.991 0.572,10.013 0.572,10.04 
	0.566,10.062 0.561,10.089 0.556,10.111 0.545,10.127 0.534,10.149 0.517,10.171 0.501,10.187 0.485,10.204 0.468,10.215 
	0.447,10.225 0.43,10.236 0.408,10.242 0.381,10.253 0.359,10.253 0.332,10.253 0.31,10.253 0.289,10.253 0.267,10.242 0.24,10.236 
	0.223,10.225 0.202,10.215 0.185,10.204 0.169,10.187 0.152,10.171 0.136,10.149 0.125,10.127 0.114,10.111 0.109,10.089 
	0.103,10.062 0.098,10.04 0.098,10.013 0.098,9.991 0.103,9.969 0.109,9.948 0.114,9.92 0.125,9.904 0.136,9.882 0.152,9.866 
	0.169,9.85 0.185,9.833 0.202,9.817 0.223,9.806 0.24,9.795 0.267,9.79 0.289,9.784 0.31,9.779 "/>
<polygon fill="#FFFFFF" points="0.332,9.779 0.332,9.746 0.359,9.746 0.392,9.752 0.414,9.757 0.441,9.768 0.43,9.795 0.414,9.828 
	0.398,9.822 0.376,9.817 0.354,9.811 0.332,9.811 "/>
<polygon fill="#FFFFFF" points="0.43,9.795 0.441,9.768 0.463,9.779 0.485,9.795 0.507,9.806 0.528,9.828 0.501,9.85 0.479,9.871 
	0.468,9.855 0.452,9.844 0.414,9.828 "/>
<polygon fill="#FFFFFF" points="0.501,9.85 0.528,9.828 0.545,9.844 0.561,9.866 0.572,9.888 0.583,9.91 0.556,9.92 0.528,9.937 
	0.507,9.904 0.496,9.888 0.479,9.871 "/>
<polygon fill="#FFFFFF" points="0.556,9.92 0.583,9.91 0.594,9.937 0.599,9.964 0.605,9.986 0.605,10.013 0.572,10.013 
	0.545,10.013 0.539,9.997 0.539,9.975 0.528,9.937 "/>
<polygon fill="#FFFFFF" points="0.572,10.013 0.605,10.013 0.605,10.046 0.599,10.073 0.594,10.095 0.583,10.122 0.556,10.111 
	0.528,10.095 0.534,10.078 0.539,10.057 0.539,10.035 0.545,10.013 "/>
<polygon fill="#FFFFFF" points="0.556,10.111 0.583,10.122 0.572,10.144 0.561,10.166 0.545,10.187 0.528,10.209 0.501,10.187 
	0.479,10.16 0.496,10.149 0.507,10.133 0.528,10.095 "/>
<polygon fill="#FFFFFF" points="0.501,10.187 0.528,10.209 0.507,10.225 0.485,10.242 0.463,10.253 0.441,10.269 0.43,10.236 
	0.414,10.209 0.452,10.187 0.468,10.176 0.479,10.16 "/>
<polygon fill="#FFFFFF" points="0.43,10.236 0.441,10.269 0.414,10.274 0.392,10.28 0.359,10.285 0.332,10.285 0.332,10.253 
	0.332,10.225 0.354,10.22 0.376,10.22 0.398,10.215 0.414,10.209 "/>
<polygon fill="#FFFFFF" points="0.332,10.253 0.332,10.285 0.305,10.285 0.283,10.28 0.256,10.274 0.229,10.269 0.24,10.236 
	0.256,10.209 0.294,10.22 0.31,10.22 0.332,10.225 "/>
<polygon fill="#FFFFFF" points="0.24,10.236 0.229,10.269 0.207,10.253 0.185,10.242 0.163,10.225 0.142,10.209 0.169,10.187 
	0.191,10.16 0.202,10.176 0.218,10.187 0.256,10.209 "/>
<polygon fill="#FFFFFF" points="0.169,10.187 0.142,10.209 0.125,10.187 0.109,10.166 0.098,10.144 0.087,10.122 0.114,10.111 
	0.147,10.095 0.163,10.133 0.174,10.149 0.191,10.16 "/>
<polygon fill="#FFFFFF" points="0.114,10.111 0.087,10.122 0.076,10.095 0.071,10.073 0.065,10.046 0.065,10.013 0.098,10.013 
	0.131,10.013 0.131,10.035 0.136,10.057 0.136,10.078 0.147,10.095 "/>
<polygon fill="#FFFFFF" points="0.098,10.013 0.065,10.013 0.065,9.986 0.071,9.964 0.076,9.937 0.087,9.91 0.114,9.92 0.147,9.937 
	0.136,9.953 0.136,9.975 0.131,9.997 0.131,10.013 "/>
<polygon fill="#FFFFFF" points="0.114,9.92 0.087,9.91 0.098,9.888 0.109,9.866 0.125,9.844 0.142,9.828 0.169,9.85 0.191,9.871 
	0.174,9.888 0.163,9.899 0.152,9.92 0.147,9.937 "/>
<polygon fill="#FFFFFF" points="0.169,9.85 0.142,9.828 0.163,9.806 0.185,9.795 0.207,9.779 0.229,9.768 0.24,9.795 0.256,9.828 
	0.234,9.833 0.218,9.844 0.202,9.855 0.191,9.871 "/>
<polygon fill="#FFFFFF" points="0.24,9.795 0.229,9.768 0.256,9.757 0.283,9.752 0.305,9.746 0.332,9.746 0.332,9.779 0.332,9.811 
	0.31,9.811 0.294,9.817 0.272,9.822 0.256,9.828 "/>
<polygon fill="#FFFFFF" points="4.177,9.773 4.199,9.773 4.226,9.779 4.248,9.784 4.27,9.795 4.292,9.801 4.308,9.811 4.33,9.828 
	4.346,9.844 4.362,9.861 4.373,9.877 4.384,9.899 4.395,9.92 4.406,9.942 4.411,9.964 4.411,9.986 4.417,10.013 4.411,10.035 
	4.411,10.062 4.406,10.084 4.395,10.106 4.384,10.127 4.373,10.144 4.362,10.166 4.346,10.182 4.33,10.198 4.308,10.209 
	4.292,10.22 4.27,10.231 4.248,10.236 4.226,10.247 4.199,10.247 4.177,10.253 4.15,10.247 4.128,10.247 4.107,10.236 4.085,10.231 
	4.063,10.22 4.041,10.209 4.025,10.198 4.008,10.182 3.992,10.166 3.981,10.144 3.965,10.127 3.959,10.106 3.949,10.084 
	3.943,10.062 3.938,10.035 3.938,10.013 3.938,9.986 3.943,9.964 3.949,9.942 3.959,9.92 3.965,9.899 3.981,9.877 3.992,9.861 
	4.008,9.844 4.025,9.828 4.041,9.811 4.063,9.801 4.085,9.795 4.107,9.784 4.128,9.779 4.15,9.773 "/>
<polygon fill="#FFFFFF" points="4.177,9.773 4.177,9.741 4.205,9.746 4.232,9.746 4.254,9.752 4.281,9.762 4.27,9.795 4.259,9.822 
	4.237,9.817 4.215,9.811 4.199,9.806 4.177,9.806 "/>
<polygon fill="#FFFFFF" points="4.27,9.795 4.281,9.762 4.303,9.773 4.324,9.79 4.346,9.801 4.368,9.822 4.346,9.844 4.324,9.866 
	4.308,9.85 4.292,9.839 4.259,9.822 "/>
<polygon fill="#FFFFFF" points="4.346,9.844 4.368,9.822 4.384,9.839 4.401,9.861 4.417,9.882 4.428,9.904 4.395,9.92 4.368,9.931 
	4.346,9.899 4.335,9.882 4.324,9.866 "/>
<polygon fill="#FFFFFF" points="4.395,9.92 4.428,9.904 4.433,9.931 4.439,9.959 4.444,9.986 4.45,10.013 4.417,10.013 
	4.384,10.013 4.384,9.991 4.379,9.969 4.368,9.931 "/>
<polygon fill="#FFFFFF" points="4.417,10.013 4.45,10.013 4.444,10.04 4.439,10.067 4.433,10.095 4.428,10.116 4.395,10.106 
	4.368,10.095 4.373,10.073 4.379,10.051 4.384,10.029 4.384,10.013 "/>
<polygon fill="#FFFFFF" points="4.395,10.106 4.428,10.116 4.417,10.138 4.401,10.16 4.384,10.182 4.368,10.204 4.346,10.182 
	4.324,10.155 4.335,10.144 4.346,10.127 4.368,10.095 "/>
<polygon fill="#FFFFFF" points="4.346,10.182 4.368,10.204 4.346,10.22 4.324,10.236 4.303,10.253 4.281,10.264 4.27,10.231 
	4.259,10.204 4.292,10.182 4.308,10.171 4.324,10.155 "/>
<polygon fill="#FFFFFF" points="4.27,10.231 4.281,10.264 4.259,10.269 4.232,10.274 4.205,10.28 4.177,10.285 4.177,10.253 
	4.177,10.22 4.199,10.22 4.215,10.215 4.237,10.209 4.259,10.204 "/>
<polygon fill="#FFFFFF" points="4.177,10.253 4.177,10.285 4.15,10.28 4.123,10.274 4.096,10.269 4.068,10.264 4.085,10.231 
	4.096,10.204 4.134,10.215 4.156,10.22 4.177,10.22 "/>
<polygon fill="#FFFFFF" points="4.085,10.231 4.068,10.264 4.047,10.253 4.025,10.236 4.003,10.22 3.987,10.204 4.008,10.182 
	4.03,10.155 4.047,10.171 4.063,10.182 4.096,10.204 "/>
<polygon fill="#FFFFFF" points="4.008,10.182 3.987,10.204 3.965,10.182 3.954,10.16 3.938,10.138 3.927,10.116 3.959,10.106 
	3.987,10.095 4.003,10.127 4.014,10.144 4.03,10.155 "/>
<polygon fill="#FFFFFF" points="3.959,10.106 3.927,10.116 3.916,10.089 3.91,10.067 3.91,10.04 3.905,10.013 3.938,10.013 
	3.97,10.013 3.97,10.029 3.976,10.051 3.981,10.073 3.987,10.095 "/>
<polygon fill="#FFFFFF" points="3.938,10.013 3.905,10.013 3.91,9.986 3.91,9.959 3.916,9.931 3.927,9.904 3.959,9.92 3.987,9.931 
	3.981,9.948 3.976,9.969 3.97,9.991 3.97,10.013 "/>
<polygon fill="#FFFFFF" points="3.959,9.92 3.927,9.904 3.938,9.882 3.954,9.861 3.965,9.839 3.987,9.822 4.008,9.844 4.03,9.866 
	4.014,9.882 4.003,9.893 3.998,9.915 3.987,9.931 "/>
<polygon fill="#FFFFFF" points="4.008,9.844 3.987,9.822 4.003,9.801 4.025,9.79 4.047,9.773 4.068,9.762 4.085,9.795 4.096,9.822 
	4.079,9.828 4.057,9.839 4.047,9.85 4.03,9.866 "/>
<polygon fill="#FFFFFF" points="4.085,9.795 4.068,9.762 4.096,9.752 4.123,9.746 4.15,9.746 4.177,9.741 4.177,9.773 4.177,9.806 
	4.156,9.806 4.134,9.811 4.112,9.817 4.096,9.822 "/>
<polygon fill="#FFFFFF" points="2.26,10.803 2.282,10.803 2.309,10.808 2.331,10.814 2.353,10.819 2.375,10.83 2.391,10.841 
	2.413,10.857 2.429,10.868 2.445,10.89 2.456,10.906 2.467,10.928 2.478,10.944 2.484,10.966 2.494,10.993 2.494,11.015 2.5,11.037 
	2.494,11.064 2.494,11.086 2.484,11.108 2.478,11.135 2.467,11.151 2.456,11.173 2.445,11.189 2.429,11.206 2.413,11.222 
	2.391,11.238 2.375,11.249 2.353,11.26 2.331,11.266 2.309,11.271 2.282,11.277 2.26,11.277 2.233,11.277 2.211,11.271 
	2.189,11.266 2.168,11.26 2.146,11.249 2.124,11.238 2.108,11.222 2.091,11.206 2.075,11.189 2.059,11.173 2.048,11.151 
	2.042,11.135 2.031,11.108 2.026,11.086 2.021,11.064 2.021,11.037 2.021,11.015 2.026,10.993 2.031,10.966 2.042,10.944 
	2.048,10.928 2.059,10.906 2.075,10.89 2.091,10.868 2.108,10.857 2.124,10.841 2.146,10.83 2.168,10.819 2.189,10.814 
	2.211,10.808 2.233,10.803 "/>
<polygon fill="#FFFFFF" points="2.26,10.803 2.26,10.77 2.287,10.77 2.315,10.775 2.336,10.781 2.364,10.792 2.353,10.819 
	2.342,10.852 2.32,10.841 2.298,10.835 2.282,10.835 2.26,10.835 "/>
<polygon fill="#FFFFFF" points="2.353,10.819 2.364,10.792 2.385,10.803 2.407,10.814 2.429,10.83 2.451,10.846 2.429,10.868 
	2.407,10.895 2.391,10.879 2.375,10.868 2.342,10.852 "/>
<polygon fill="#FFFFFF" points="2.429,10.868 2.451,10.846 2.467,10.868 2.484,10.884 2.5,10.912 2.511,10.933 2.478,10.944 
	2.451,10.961 2.429,10.923 2.418,10.906 2.407,10.895 "/>
<polygon fill="#FFFFFF" points="2.478,10.944 2.511,10.933 2.516,10.961 2.522,10.982 2.527,11.01 2.533,11.037 2.5,11.037 
	2.467,11.037 2.467,11.015 2.462,10.999 2.451,10.961 "/>
<polygon fill="#FFFFFF" points="2.5,11.037 2.533,11.037 2.527,11.064 2.522,11.091 2.516,11.119 2.511,11.146 2.478,11.135 
	2.451,11.119 2.456,11.102 2.462,11.08 2.467,11.059 2.467,11.037 "/>
<polygon fill="#FFFFFF" points="2.478,11.135 2.511,11.146 2.5,11.168 2.484,11.189 2.467,11.211 2.451,11.228 2.429,11.206 
	2.407,11.184 2.418,11.168 2.429,11.157 2.451,11.119 "/>
<polygon fill="#FFFFFF" points="2.429,11.206 2.451,11.228 2.429,11.249 2.407,11.266 2.385,11.277 2.364,11.287 2.353,11.26 
	2.342,11.228 2.375,11.211 2.391,11.2 2.407,11.184 "/>
<polygon fill="#FFFFFF" points="2.353,11.26 2.364,11.287 2.342,11.298 2.315,11.304 2.287,11.309 2.26,11.309 2.26,11.277 
	2.26,11.244 2.282,11.244 2.298,11.244 2.32,11.238 2.342,11.228 "/>
<polygon fill="#FFFFFF" points="2.26,11.277 2.26,11.309 2.233,11.309 2.206,11.304 2.179,11.298 2.151,11.287 2.168,11.26 
	2.179,11.228 2.217,11.244 2.238,11.244 2.26,11.244 "/>
<polygon fill="#FFFFFF" points="2.168,11.26 2.151,11.287 2.13,11.277 2.108,11.266 2.086,11.249 2.07,11.228 2.091,11.206 
	2.113,11.184 2.13,11.2 2.146,11.211 2.179,11.228 "/>
<polygon fill="#FFFFFF" points="2.091,11.206 2.07,11.228 2.048,11.211 2.037,11.189 2.021,11.168 2.01,11.146 2.042,11.135 
	2.07,11.119 2.086,11.157 2.097,11.168 2.113,11.184 "/>
<polygon fill="#FFFFFF" points="2.042,11.135 2.01,11.146 1.999,11.119 1.993,11.091 1.993,11.064 1.988,11.037 2.021,11.037 
	2.053,11.037 2.053,11.059 2.059,11.08 2.064,11.102 2.07,11.119 "/>
<polygon fill="#FFFFFF" points="2.021,11.037 1.988,11.037 1.993,11.01 1.993,10.982 1.999,10.961 2.01,10.933 2.042,10.944 
	2.07,10.961 2.064,10.977 2.059,10.999 2.053,11.015 2.053,11.037 "/>
<polygon fill="#FFFFFF" points="2.042,10.944 2.01,10.933 2.021,10.912 2.037,10.89 2.048,10.868 2.07,10.846 2.091,10.868 
	2.113,10.895 2.097,10.906 2.086,10.923 2.075,10.939 2.07,10.961 "/>
<polygon fill="#FFFFFF" points="2.091,10.868 2.07,10.846 2.086,10.83 2.108,10.814 2.13,10.803 2.151,10.792 2.168,10.819 
	2.179,10.852 2.162,10.857 2.14,10.868 2.13,10.879 2.113,10.895 "/>
<polygon fill="#FFFFFF" points="2.168,10.819 2.151,10.792 2.179,10.781 2.206,10.775 2.233,10.77 2.26,10.77 2.26,10.803 
	2.26,10.835 2.238,10.835 2.217,10.835 2.195,10.841 2.179,10.852 "/>
<polygon fill="#FFFFFF" points="2.26,6.674 2.282,6.674 2.309,6.674 2.331,6.68 2.353,6.691 2.375,6.702 2.391,6.713 2.413,6.723 
	2.429,6.74 2.445,6.756 2.456,6.778 2.467,6.794 2.478,6.816 2.484,6.838 2.494,6.86 2.494,6.887 2.5,6.909 2.494,6.936 
	2.494,6.958 2.484,6.979 2.478,7.001 2.467,7.023 2.456,7.045 2.445,7.061 2.429,7.077 2.413,7.094 2.391,7.11 2.375,7.121 
	2.353,7.132 2.331,7.137 2.309,7.143 2.282,7.148 2.26,7.148 2.233,7.148 2.211,7.143 2.189,7.137 2.168,7.132 2.146,7.121 
	2.124,7.11 2.108,7.094 2.091,7.077 2.075,7.061 2.059,7.045 2.048,7.023 2.042,7.001 2.031,6.979 2.026,6.958 2.021,6.936 
	2.021,6.909 2.021,6.887 2.026,6.86 2.031,6.838 2.042,6.816 2.048,6.794 2.059,6.778 2.075,6.756 2.091,6.74 2.108,6.723 
	2.124,6.713 2.146,6.702 2.168,6.691 2.189,6.68 2.211,6.674 2.233,6.674 "/>
</svg>
